  0
SECTION
  2
HEADER
  9
$ACADVER
  1
AC1024
  9
$ACADMAINTVER
 70
     6
  9
$DWGCODEPAGE
  3
ASCII
  9
$INSBASE
 10
0.0
 20
0.0
 30
0.0
  9
$EXTMIN
 10
1.000000000000000E+20
 20
1.000000000000000E+20
 30
1.000000000000000E+20
  9
$EXTMAX
 10
-1.000000000000000E+20
 20
-1.000000000000000E+20
 30
-1.000000000000000E+20
  9
$LIMMIN
 10
0.0
 20
0.0
  9
$LIMMAX
 10
12.0
 20
9.0
  9
$ORTHOMODE
 70
     0
  9
$REGENMODE
 70
     1
  9
$FILLMODE
 70
     1
  9
$QTEXTMODE
 70
     0
  9
$MIRRTEXT
 70
     1
  9
$LTSCALE
 40
1.0
  9
$ATTMODE
 70
     1
  9
$TEXTSIZE
 40
0.2
  9
$TRACEWID
 40
0.05
  9
$TEXTSTYLE
  7
Standard
  9
$CLAYER
  8
0
  9
$CELTYPE
  6
ByLayer
  9
$CECOLOR
 62
   178
  9
$CELTSCALE
 40
1.0
  9
$DISPSILH
 70
     0
  9
$DIMSCALE
 40
1.0
  9
$DIMASZ
 40
2.5
  9
$DIMEXO
 40
0.625
  9
$DIMDLI
 40
0.38
  9
$DIMRND
 40
0.0
  9
$DIMDLE
 40
0.0
  9
$DIMEXE
 40
1.25
  9
$DIMTP
 40
0.0
  9
$DIMTM
 40
0.0
  9
$DIMTXT
 40
2.5
  9
$DIMCEN
 40
0.09
  9
$DIMTSZ
 40
0.0
  9
$DIMTOL
 70
     0
  9
$DIMLIM
 70
     0
  9
$DIMTIH
 70
     1
  9
$DIMTOH
 70
     1
  9
$DIMSE1
 70
     0
  9
$DIMSE2
 70
     0
  9
$DIMTAD
 70
     0
  9
$DIMZIN
 70
     8
  9
$DIMBLK
  1

  9
$DIMASO
 70
     1
  9
$DIMSHO
 70
     1
  9
$DIMPOST
  1

  9
$DIMAPOST
  1

  9
$DIMALT
 70
     0
  9
$DIMALTD
 70
     2
  9
$DIMALTF
 40
25.4
  9
$DIMLFAC
 40
1.0
  9
$DIMTOFL
 70
     0
  9
$DIMTVP
 40
0.0
  9
$DIMTIX
 70
     0
  9
$DIMSOXD
 70
     0
  9
$DIMSAH
 70
     0
  9
$DIMBLK1
  1

  9
$DIMBLK2
  1

  9
$DIMSTYLE
  2
Standard
  9
$DIMCLRD
 70
   178
  9
$DIMCLRE
 70
   178
  9
$DIMCLRT
 70
   178
  9
$DIMTFAC
 40
1.0
  9
$DIMGAP
 40
0.625
  9
$DIMJUST
 70
     0
  9
$DIMSD1
 70
     0
  9
$DIMSD2
 70
     0
  9
$DIMTOLJ
 70
     1
  9
$DIMTZIN
 70
     0
  9
$DIMALTZ
 70
     0
  9
$DIMALTTZ
 70
     0
  9
$DIMUPT
 70
     0
  9
$DIMDEC
 70
     4
  9
$DIMTDEC
 70
     4
  9
$DIMALTU
 70
     2
  9
$DIMALTTD
 70
     2
  9
$DIMTXSTY
  7
Standard
  9
$DIMAUNIT
 70
     0
  9
$DIMADEC
 70
     0
  9
$DIMALTRND
 40
0.0
  9
$DIMAZIN
 70
     2
  9
$DIMDSEP
 70
    46
  9
$DIMATFIT
 70
     3
  9
$DIMFRAC
 70
     0
  9
$DIMLDRBLK
  1

  9
$DIMLUNIT
 70
     2
  9
$DIMLWD
 70
    -2
  9
$DIMLWE
 70
    -2
  9
$DIMTMOVE
 70
     0
  9
$DIMFXL
 40
1.0
  9
$DIMFXLON
 70
     0
  9
$DIMJOGANG
 40
0.7853981633974483
  9
$DIMTFILL
 70
     0
  9
$DIMTFILLCLR
 70
     0
  9
$DIMARCSYM
 70
     0
  9
$DIMLTYPE
  6

  9
$DIMLTEX1
  6

  9
$DIMLTEX2
  6

  9
$DIMTXTDIRECTION
 70
     0
  9
$LUNITS
 70
     2
  9
$LUPREC
 70
     4
  9
$SKETCHINC
 40
0.1
  9
$FILLETRAD
 40
0.5
  9
$AUNITS
 70
     0
  9
$AUPREC
 70
     0
  9
$MENU
  1
.
  9
$ELEVATION
 40
0.0
  9
$PELEVATION
 40
0.0
  9
$THICKNESS
 40
0.0
  9
$LIMCHECK
 70
     0
  9
$CHAMFERA
 40
0.5
  9
$CHAMFERB
 40
0.5
  9
$CHAMFERC
 40
1.0
  9
$CHAMFERD
 40
0.0
  9
$SKPOLY
 70
     0
  9
$TDCREATE
 40
2456446.972071759
  9
$TDUCREATE
 40
2456447.180405092
  9
$TDUPDATE
 40
2456446.972071759
  9
$TDUUPDATE
 40
2456447.180405092
  9
$TDINDWG
 40
0.0000000116
  9
$TDUSRTIMER
 40
0.0000000116
  9
$USRTIMER
 70
     1
  9
$ANGBASE
 50
0.0
  9
$ANGDIR
 70
     0
  9
$PDMODE
 70
     0
  9
$PDSIZE
 40
0.0
  9
$PLINEWID
 40
0.0
  9
$SPLFRAME
 70
     0
  9
$SPLINETYPE
 70
     6
  9
$SPLINESEGS
 70
     8
  9
$HANDSEED
  5
302
  9
$SURFTAB1
 70
     6
  9
$SURFTAB2
 70
     6
  9
$SURFTYPE
 70
     6
  9
$SURFU
 70
     6
  9
$SURFV
 70
     6
  9
$UCSBASE
  2

  9
$UCSNAME
  2

  9
$UCSORG
 10
0.0
 20
0.0
 30
0.0
  9
$UCSXDIR
 10
1.0
 20
0.0
 30
0.0
  9
$UCSYDIR
 10
0.0
 20
1.0
 30
0.0
  9
$UCSORTHOREF
  2

  9
$UCSORTHOVIEW
 70
     0
  9
$UCSORGTOP
 10
0.0
 20
0.0
 30
0.0
  9
$UCSORGBOTTOM
 10
0.0
 20
0.0
 30
0.0
  9
$UCSORGLEFT
 10
0.0
 20
0.0
 30
0.0
  9
$UCSORGRIGHT
 10
0.0
 20
0.0
 30
0.0
  9
$UCSORGFRONT
 10
0.0
 20
0.0
 30
0.0
  9
$UCSORGBACK
 10
0.0
 20
0.0
 30
0.0
  9
$PUCSBASE
  2

  9
$PUCSNAME
  2

  9
$PUCSORG
 10
0.0
 20
0.0
 30
0.0
  9
$PUCSXDIR
 10
1.0
 20
0.0
 30
0.0
  9
$PUCSYDIR
 10
0.0
 20
1.0
 30
0.0
  9
$PUCSORTHOREF
  2

  9
$PUCSORTHOVIEW
 70
     0
  9
$PUCSORGTOP
 10
0.0
 20
0.0
 30
0.0
  9
$PUCSORGBOTTOM
 10
0.0
 20
0.0
 30
0.0
  9
$PUCSORGLEFT
 10
0.0
 20
0.0
 30
0.0
  9
$PUCSORGRIGHT
 10
0.0
 20
0.0
 30
0.0
  9
$PUCSORGFRONT
 10
0.0
 20
0.0
 30
0.0
  9
$PUCSORGBACK
 10
0.0
 20
0.0
 30
0.0
  9
$USERI1
 70
     0
  9
$USERI2
 70
     0
  9
$USERI3
 70
     0
  9
$USERI4
 70
     0
  9
$USERI5
 70
     0
  9
$USERR1
 40
0.0
  9
$USERR2
 40
0.0
  9
$USERR3
 40
0.0
  9
$USERR4
 40
0.0
  9
$USERR5
 40
0.0
  9
$WORLDVIEW
 70
     1
  9
$SHADEDGE
 70
     3
  9
$SHADEDIF
 70
    70
  9
$TILEMODE
 70
     1
  9
$MAXACTVP
 70
    64
  9
$PINSBASE
 10
0.0
 20
0.0
 30
0.0
  9
$PLIMCHECK
 70
     0
  9
$PEXTMIN
 10
1.000000000000000E+20
 20
1.000000000000000E+20
 30
1.000000000000000E+20
  9
$PEXTMAX
 10
-1.000000000000000E+20
 20
-1.000000000000000E+20
 30
-1.000000000000000E+20
  9
$PLIMMIN
 10
0.0
 20
0.0
  9
$PLIMMAX
 10
12.0
 20
9.0
  9
$UNITMODE
 70
     0
  9
$VISRETAIN
 70
     1
  9
$PLINEGEN
 70
     0
  9
$PSLTSCALE
 70
     1
  9
$TREEDEPTH
 70
  3020
  9
$CMLSTYLE
  2
Standard
  9
$CMLJUST
 70
     0
  9
$CMLSCALE
 40
1.0
  9
$PROXYGRAPHICS
 70
     1
  9
$MEASUREMENT
 70
     0
  9
$CELWEIGHT
370
    -1
  9
$ENDCAPS
280
     0
  9
$JOINSTYLE
280
     0
  9
$LWDISPLAY
290
     0
  9
$INSUNITS
 70
     1
  9
$HYPERLINKBASE
  1

  9
$STYLESHEET
  1

  9
$XEDIT
290
     1
  9
$CEPSNTYPE
380
     0
  9
$PSTYLEMODE
290
     1
  9
$FINGERPRINTGUID
  2
{144C3E7A-9911-4E8E-098D-32B3710FB51C}
  9
$VERSIONGUID
  2
{FAEB1C32-E019-11D5-929B-00C0DF256EC4}
  9
$EXTNAMES
290
     1
  9
$PSVPSCALE
 40
0.0
  9
$OLESTARTUP
290
     0
  9
$SORTENTS
280
   127
  9
$INDEXCTL
280
     0
  9
$HIDETEXT
280
     1
  9
$XCLIPFRAME
280
     2
  9
$HALOGAP
280
     0
  9
$OBSCOLOR
 70
   257
  9
$OBSLTYPE
280
     0
  9
$INTERSECTIONDISPLAY
280
     0
  9
$INTERSECTIONCOLOR
 70
   257
  9
$DIMASSOC
280
     2
  9
$PROJECTNAME
  1

  9
$CAMERADISPLAY
290
     0
  9
$LENSLENGTH
 40
50.0
  9
$CAMERAHEIGHT
 40
0.0
  9
$STEPSPERSEC
 40
2.0
  9
$STEPSIZE
 40
6.0
  9
$3DDWFPREC
 40
2.0
  9
$PSOLWIDTH
 40
0.25
  9
$PSOLHEIGHT
 40
4.0
  9
$LOFTANG1
 40
1.570796326794897
  9
$LOFTANG2
 40
1.570796326794897
  9
$LOFTMAG1
 40
0.0
  9
$LOFTMAG2
 40
0.0
  9
$LOFTPARAM
 70
     7
  9
$LOFTNORMALS
280
     1
  9
$LATITUDE
 40
37.795
  9
$LONGITUDE
 40
-122.394
  9
$NORTHDIRECTION
 40
0.0
  9
$TIMEZONE
 70
 -8000
  9
$LIGHTGLYPHDISPLAY
280
     1
  9
$TILEMODELIGHTSYNCH
280
     1
  9
$SOLIDHIST
280
     1
  9
$SHOWHIST
280
     1
  9
$DWFFRAME
280
     2
  9
$DGNFRAME
280
     2
  9
$REALWORLDSCALE
290
     1
  9
$INTERFERECOLOR
 62
   256
  9
$CSHADOW
280
     0
  9
$SHADOWPLANELOCATION
 40
0.0
  0
ENDSEC
  0
SECTION
  2
CLASSES
  0
CLASS
  1
ACDBDICTIONARYWDFLT
  2
AcDbDictionaryWithDefault
  3
ObjectDBX Classes
 90
        0
 91
        4
280
     0
281
     0
  0
CLASS
  1
VISUALSTYLE
  2
AcDbVisualStyle
  3
ObjectDBX Classes
 90
     4095
 91
        4
280
     0
281
     0
  0
CLASS
  1
MATERIAL
  2
AcDbMaterial
  3
ObjectDBX Classes
 90
     1153
 91
        4
280
     0
281
     0
  0
ENDSEC
  0
SECTION
  2
TABLES
  0
TABLE
  2
VPORT
  5
2A0
330
0
100
AcDbSymbolTable
 70
     1
  0
VPORT
  5
2C0
330
2A0
100
AcDbSymbolTableRecord
100
AcDbViewportTableRecord
  2
*Active
 70
     0
 10
0.0
 20
0.0
 11
1.0
 21
1.0
 12
10.42990654205607
 22
4.5
 13
0.0
 23
0.0
 14
0.5
 24
0.5
 15
0.5
 25
0.5
 16
0.0
 26
0.0
 36
1.0
 17
0.0
 27
0.0
 37
0.0
 40
9.0
 41
1.972972972850329
 42
50.0
 43
0.0
 44
0.0
 50
0.0
 51
0.0
 71
     0
 72
   100
 73
     1
 74
     3
 75
     0
 76
     0
 77
     0
 78
     0
281
     0
 65
     1
110
0.0
120
0.0
130
0.0
111
1.0
121
0.0
131
0.0
112
0.0
122
1.0
132
0.0
 79
     0
146
0.0
 60
     3
 61
     5
292
     1
282
     1
141
0.0
142
0.0
 63
   250
  0
ENDTAB
  0
TABLE
  2
LTYPE
  5
29D
330
0
100
AcDbSymbolTable
 70
    19
  0
LTYPE
  5
2AB
330
29D
100
AcDbSymbolTableRecord
100
AcDbLinetypeTableRecord
  2
ByBlock
 70
     0
  3

 72
    65
 73
     0
 40
0.0
  0
LTYPE
  5
2AC
330
29D
100
AcDbSymbolTableRecord
100
AcDbLinetypeTableRecord
  2
ByLayer
 70
     0
  3

 72
    65
 73
     0
 40
0.0
  0
LTYPE
  5
2AD
330
29D
100
AcDbSymbolTableRecord
100
AcDbLinetypeTableRecord
  2
Continuous
 70
     0
  3
Solid line
 72
    65
 73
     0
 40
0.0
  0
LTYPE
  5
2ED
330
29D
100
AcDbSymbolTableRecord
100
AcDbLinetypeTableRecord
  2
BORDER
 70
     0
  3

 72
    65
 73
     6
 40
42.0
 49
12.0
 74
     0
 49
-6.0
 74
     0
 49
12.0
 74
     0
 49
-5.95
 74
     0
 49
0.1
 74
     0
 49
-5.95
 74
     0
  0
LTYPE
  5
2EE
330
29D
100
AcDbSymbolTableRecord
100
AcDbLinetypeTableRecord
  2
BORDER2
 70
     0
  3

 72
    65
 73
     6
 40
21.0
 49
6.0
 74
     0
 49
-3.0
 74
     0
 49
6.0
 74
     0
 49
-2.95
 74
     0
 49
0.1
 74
     0
 49
-2.95
 74
     0
  0
LTYPE
  5
2EF
330
29D
100
AcDbSymbolTableRecord
100
AcDbLinetypeTableRecord
  2
BORDERX2
 70
     0
  3

 72
    65
 73
     6
 40
84.0
 49
24.0
 74
     0
 49
-12.0
 74
     0
 49
24.0
 74
     0
 49
-11.95
 74
     0
 49
0.1
 74
     0
 49
-11.95
 74
     0
  0
LTYPE
  5
2F0
330
29D
100
AcDbSymbolTableRecord
100
AcDbLinetypeTableRecord
  2
CENTER
 70
     0
  3

 72
    65
 73
     4
 40
50.0
 49
32.0
 74
     0
 49
-6.0
 74
     0
 49
6.0
 74
     0
 49
-6.0
 74
     0
  0
LTYPE
  5
2F1
330
29D
100
AcDbSymbolTableRecord
100
AcDbLinetypeTableRecord
  2
CENTER2
 70
     0
  3

 72
    65
 73
     4
 40
25.0
 49
16.0
 74
     0
 49
-3.0
 74
     0
 49
3.0
 74
     0
 49
-3.0
 74
     0
  0
LTYPE
  5
2F2
330
29D
100
AcDbSymbolTableRecord
100
AcDbLinetypeTableRecord
  2
CENTERX2
 70
     0
  3

 72
    65
 73
     4
 40
100.0
 49
64.0
 74
     0
 49
-12.0
 74
     0
 49
12.0
 74
     0
 49
-12.0
 74
     0
  0
LTYPE
  5
2F3
330
29D
100
AcDbSymbolTableRecord
100
AcDbLinetypeTableRecord
  2
DASHDOT
 70
     0
  3

 72
    65
 73
     4
 40
24.0
 49
12.0
 74
     0
 49
-5.95
 74
     0
 49
0.1
 74
     0
 49
-5.95
 74
     0
  0
LTYPE
  5
2F4
330
29D
100
AcDbSymbolTableRecord
100
AcDbLinetypeTableRecord
  2
DASHDOT2
 70
     0
  3

 72
    65
 73
     4
 40
12.0
 49
6.0
 74
     0
 49
-2.95
 74
     0
 49
0.1
 74
     0
 49
-2.95
 74
     0
  0
LTYPE
  5
2F5
330
29D
100
AcDbSymbolTableRecord
100
AcDbLinetypeTableRecord
  2
DASHDOTX2
 70
     0
  3

 72
    65
 73
     4
 40
48.0
 49
24.0
 74
     0
 49
-11.95
 74
     0
 49
0.1
 74
     0
 49
-11.95
 74
     0
  0
LTYPE
  5
2F6
330
29D
100
AcDbSymbolTableRecord
100
AcDbLinetypeTableRecord
  2
DASHED
 70
     0
  3

 72
    65
 73
     2
 40
18.0
 49
12.0
 74
     0
 49
-6.0
 74
     0
  0
LTYPE
  5
2F7
330
29D
100
AcDbSymbolTableRecord
100
AcDbLinetypeTableRecord
  2
DASHED2
 70
     0
  3

 72
    65
 73
     2
 40
9.0
 49
6.0
 74
     0
 49
-3.0
 74
     0
  0
LTYPE
  5
2F8
330
29D
100
AcDbSymbolTableRecord
100
AcDbLinetypeTableRecord
  2
DASHEDX2
 70
     0
  3

 72
    65
 73
     2
 40
36.0
 49
24.0
 74
     0
 49
-12.0
 74
     0
  0
LTYPE
  5
2F9
330
29D
100
AcDbSymbolTableRecord
100
AcDbLinetypeTableRecord
  2
DIVIDE
 70
     0
  3

 72
    65
 73
     6
 40
30.0
 49
12.0
 74
     0
 49
-5.9
 74
     0
 49
0.15
 74
     0
 49
-5.9
 74
     0
 49
0.15
 74
     0
 49
-5.9
 74
     0
  0
LTYPE
  5
2FA
330
29D
100
AcDbSymbolTableRecord
100
AcDbLinetypeTableRecord
  2
DIVIDE2
 70
     0
  3

 72
    65
 73
     6
 40
15.0
 49
6.0
 74
     0
 49
-2.9
 74
     0
 49
0.15
 74
     0
 49
-2.9
 74
     0
 49
0.15
 74
     0
 49
-2.9
 74
     0
  0
LTYPE
  5
2FB
330
29D
100
AcDbSymbolTableRecord
100
AcDbLinetypeTableRecord
  2
DIVIDEX2
 70
     0
  3

 72
    65
 73
     6
 40
60.0
 49
24.0
 74
     0
 49
-11.9
 74
     0
 49
0.15
 74
     0
 49
-11.9
 74
     0
 49
0.15
 74
     0
 49
-11.9
 74
     0
  0
LTYPE
  5
2FC
330
29D
100
AcDbSymbolTableRecord
100
AcDbLinetypeTableRecord
  2
DOT
 70
     0
  3

 72
    65
 73
     2
 40
6.3
 49
0.1
 74
     0
 49
-6.2
 74
     0
  0
LTYPE
  5
2FD
330
29D
100
AcDbSymbolTableRecord
100
AcDbLinetypeTableRecord
  2
DOT2
 70
     0
  3

 72
    65
 73
     2
 40
3.2
 49
0.1
 74
     0
 49
-3.1
 74
     0
  0
LTYPE
  5
2FE
330
29D
100
AcDbSymbolTableRecord
100
AcDbLinetypeTableRecord
  2
DOTX2
 70
     0
  3

 72
    65
 73
     2
 40
12.5
 49
0.1
 74
     0
 49
-12.4
 74
     0
  0
ENDTAB
  0
TABLE
  2
LAYER
  5
29A
330
0
100
AcDbSymbolTable
 70
     2
  0
LAYER
  5
2A8
330
29A
100
AcDbSymbolTableRecord
100
AcDbLayerTableRecord
  2
0
 70
     0
 62
     7
420
 16777215
  6
Continuous
370
    25
390
2A7
347
2D5
  0
LAYER
  5
2FF
330
29A
100
AcDbSymbolTableRecord
100
AcDbLayerTableRecord
  2
expand
 70
     0
 62
   178
420
        0
  6
Continuous
370
     0
390
2A7
347
2D5
  0
ENDTAB
  0
TABLE
  2
STYLE
  5
29B
330
0
100
AcDbSymbolTable
 70
     1
  0
STYLE
  5
2A9
330
29B
100
AcDbSymbolTableRecord
100
AcDbTextStyleTableRecord
  2
Standard
 70
     0
 40
0.0
 41
1.0
 50
0.0
 71
     0
 42
0.2
  3
txt
  4

  0
ENDTAB
  0
TABLE
  2
VIEW
  5
29E
330
0
100
AcDbSymbolTable
 70
     0
  0
ENDTAB
  0
TABLE
  2
UCS
  5
29F
330
0
100
AcDbSymbolTable
 70
     0
  0
ENDTAB
  0
TABLE
  2
APPID
  5
2A1
330
0
100
AcDbSymbolTable
 70
     2
  0
APPID
  5
2AA
330
2A1
100
AcDbSymbolTableRecord
100
AcDbRegAppTableRecord
  2
ACAD
 70
     0
  0
APPID
  5
2D6
330
2A1
100
AcDbSymbolTableRecord
100
AcDbRegAppTableRecord
  2
QCAD
 70
     0
  0
ENDTAB
  0
TABLE
  2
DIMSTYLE
  5
2A2
330
0
100
AcDbSymbolTable
 70
     2
100
AcDbDimStyleTable
  0
DIMSTYLE
105
2BE
330
2A2
100
AcDbSymbolTableRecord
100
AcDbDimStyleTableRecord
  2
Standard
 70
     0
178
     0
340
2A9
  0
DIMSTYLE
105
2EC
330
2A2
100
AcDbSymbolTableRecord
100
AcDbDimStyleTableRecord
  2
QCADDimStyle
 70
     0
 41
2.5
 42
0.625
 44
1.25
 73
     0
 77
     1
140
2.5
147
0.625
178
     0
340
2A9
  0
ENDTAB
  0
TABLE
  2
BLOCK_RECORD
  5
299
330
0
100
AcDbSymbolTable
 70
     1
  0
BLOCK_RECORD
  5
2B6
330
299
100
AcDbSymbolTableRecord
100
AcDbBlockTableRecord
  2
*Model_Space
340
2B9
 70
     0
280
     1
281
     0
  0
BLOCK_RECORD
  5
2B2
330
299
100
AcDbSymbolTableRecord
100
AcDbBlockTableRecord
  2
*Paper_Space
340
2B5
 70
     0
280
     1
281
     0
  0
BLOCK_RECORD
  5
2BA
330
299
100
AcDbSymbolTableRecord
100
AcDbBlockTableRecord
  2
*Paper_Space0
340
2BD
 70
     0
280
     1
281
     0
  0
ENDTAB
  0
ENDSEC
  0
SECTION
  2
BLOCKS
  0
BLOCK
  5
2B7
330
2B6
100
AcDbEntity
  8
0
100
AcDbBlockBegin
  2
*Model_Space
 70
     0
 10
0.0
 20
0.0
 30
0.0
  3
*Model_Space
  1

  0
ENDBLK
  5
2B8
330
2B6
100
AcDbEntity
  8
0
100
AcDbBlockEnd
  0
BLOCK
  5
2B3
330
2B2
100
AcDbEntity
 67
     1
  8
0
100
AcDbBlockBegin
  2
*Paper_Space
 70
     0
 10
0.0
 20
0.0
 30
0.0
  3
*Paper_Space
  1

  0
ENDBLK
  5
2B4
330
2B2
100
AcDbEntity
 67
     1
  8
0
100
AcDbBlockEnd
  0
BLOCK
  5
2BB
330
2BA
100
AcDbEntity
  8
0
100
AcDbBlockBegin
  2
*Paper_Space0
 70
     0
 10
0.0
 20
0.0
 30
0.0
  3
*Paper_Space0
  1

  0
ENDBLK
  5
2BC
330
2BA
100
AcDbEntity
  8
0
100
AcDbBlockEnd
  0
ENDSEC
  0
SECTION
  2
ENTITIES
  0
LINE
  5
181
330
2B6
100
AcDbEntity
  8
expand
100
AcDbLine
 10
9.4475
 20
6.4725
 30
0.0
 11
9.4475
 21
3.402500000000001
 31
0.0
  0
LINE
  5
182
330
2B6
100
AcDbEntity
  8
expand
100
AcDbLine
 10
9.4475
 20
6.4725
 30
0.0
 11
0.8650000000000002
 21
6.4725
 31
0.0
  0
LINE
  5
183
330
2B6
100
AcDbEntity
  8
expand
100
AcDbLine
 10
9.4475
 20
3.402500000000001
 30
0.0
 11
0.8650000000000002
 21
3.402500000000001
 31
0.0
  0
LINE
  5
184
330
2B6
100
AcDbEntity
  8
expand
100
AcDbLine
 10
4.04
 20
3.15
 30
0.0
 11
8.985
 21
3.15
 31
0.0
  0
LINE
  5
185
330
2B6
100
AcDbEntity
  8
expand
100
AcDbLine
 10
8.985
 20
3.15
 30
0.0
 11
8.985
 21
2.79
 31
0.0
  0
LINE
  5
186
330
2B6
100
AcDbEntity
  8
expand
100
AcDbLine
 10
4.04
 20
2.79
 30
0.0
 11
8.985
 21
2.79
 31
0.0
  0
LINE
  5
187
330
2B6
100
AcDbEntity
  8
expand
100
AcDbLine
 10
4.04
 20
3.15
 30
0.0
 11
4.04
 21
2.79
 31
0.0
  0
LINE
  5
188
330
2B6
100
AcDbEntity
  8
expand
100
AcDbLine
 10
3.26
 20
3.15
 30
0.0
 11
3.26
 21
2.79
 31
0.0
  0
LINE
  5
189
330
2B6
100
AcDbEntity
  8
expand
100
AcDbLine
 10
2.34
 20
3.15
 30
0.0
 11
3.26
 21
3.15
 31
0.0
  0
LINE
  5
18A
330
2B6
100
AcDbEntity
  8
expand
100
AcDbLine
 10
2.34
 20
2.79
 30
0.0
 11
3.26
 21
2.79
 31
0.0
  0
LINE
  5
18B
330
2B6
100
AcDbEntity
  8
expand
100
AcDbLine
 10
2.34
 20
3.15
 30
0.0
 11
2.34
 21
2.79
 31
0.0
  0
LINE
  5
18C
330
2B6
100
AcDbEntity
  8
expand
100
AcDbLine
 10
0.8650000000000004
 20
6.4725
 30
0.0
 11
0.8650000000000004
 21
3.402500000000001
 31
0.0
  0
CIRCLE
  5
18D
330
2B6
100
AcDbEntity
  8
expand
100
AcDbCircle
 10
1.02
 20
2.27
 30
0.0
 40
0.25
  0
CIRCLE
  5
18E
330
2B6
100
AcDbEntity
  8
expand
100
AcDbCircle
 10
1.02
 20
1.53
 30
0.0
 40
0.25
  0
CIRCLE
  5
18F
330
2B6
100
AcDbEntity
  8
expand
100
AcDbCircle
 10
1.900000000000001
 20
1.53
 30
0.0
 40
0.25
  0
CIRCLE
  5
190
330
2B6
100
AcDbEntity
  8
expand
100
AcDbCircle
 10
1.900000000000001
 20
2.27
 30
0.0
 40
0.25
  0
CIRCLE
  5
191
330
2B6
100
AcDbEntity
  8
expand
100
AcDbCircle
 10
2.780000000000002
 20
2.27
 30
0.0
 40
0.25
  0
CIRCLE
  5
192
330
2B6
100
AcDbEntity
  8
expand
100
AcDbCircle
 10
2.780000000000002
 20
1.53
 30
0.0
 40
0.25
  0
CIRCLE
  5
193
330
2B6
100
AcDbEntity
  8
expand
100
AcDbCircle
 10
3.665000000000001
 20
2.27
 30
0.0
 40
0.25
  0
CIRCLE
  5
194
330
2B6
100
AcDbEntity
  8
expand
100
AcDbCircle
 10
3.665000000000001
 20
1.53
 30
0.0
 40
0.25
  0
CIRCLE
  5
195
330
2B6
100
AcDbEntity
  8
expand
100
AcDbCircle
 10
4.550000000000001
 20
2.27
 30
0.0
 40
0.25
  0
CIRCLE
  5
196
330
2B6
100
AcDbEntity
  8
expand
100
AcDbCircle
 10
4.550000000000001
 20
1.53
 30
0.0
 40
0.25
  0
CIRCLE
  5
197
330
2B6
100
AcDbEntity
  8
expand
100
AcDbCircle
 10
5.435000000000001
 20
1.53
 30
0.0
 40
0.25
  0
LINE
  5
198
330
2B6
100
AcDbEntity
  8
expand
100
AcDbLine
 10
5.995
 20
0.76
 30
0.0
 11
5.995
 21
0.45
 31
0.0
  0
LINE
  5
199
330
2B6
100
AcDbEntity
  8
expand
100
AcDbLine
 10
5.685
 20
0.45
 30
0.0
 11
5.685
 21
0.76
 31
0.0
  0
LINE
  5
19A
330
2B6
100
AcDbEntity
  8
expand
100
AcDbLine
 10
5.445
 20
0.76
 30
0.0
 11
5.445
 21
0.45
 31
0.0
  0
LINE
  5
19B
330
2B6
100
AcDbEntity
  8
expand
100
AcDbLine
 10
5.135000000000001
 20
0.45
 30
0.0
 11
5.135000000000001
 21
0.76
 31
0.0
  0
LINE
  5
19C
330
2B6
100
AcDbEntity
  8
expand
100
AcDbLine
 10
4.925000000000001
 20
0.76
 30
0.0
 11
4.925000000000001
 21
0.45
 31
0.0
  0
LINE
  5
19D
330
2B6
100
AcDbEntity
  8
expand
100
AcDbLine
 10
4.615000000000001
 20
0.45
 30
0.0
 11
4.615000000000001
 21
0.76
 31
0.0
  0
LINE
  5
19E
330
2B6
100
AcDbEntity
  8
expand
100
AcDbLine
 10
4.425000000000001
 20
0.76
 30
0.0
 11
4.425000000000001
 21
0.45
 31
0.0
  0
LINE
  5
19F
330
2B6
100
AcDbEntity
  8
expand
100
AcDbLine
 10
4.115000000000001
 20
0.45
 30
0.0
 11
4.115000000000001
 21
0.76
 31
0.0
  0
LINE
  5
1A0
330
2B6
100
AcDbEntity
  8
expand
100
AcDbLine
 10
3.905
 20
0.76
 30
0.0
 11
3.905
 21
0.45
 31
0.0
  0
LINE
  5
1A1
330
2B6
100
AcDbEntity
  8
expand
100
AcDbLine
 10
3.595000000000001
 20
0.45
 30
0.0
 11
3.595000000000001
 21
0.76
 31
0.0
  0
LINE
  5
1A2
330
2B6
100
AcDbEntity
  8
expand
100
AcDbLine
 10
3.595000000000001
 20
0.76
 30
0.0
 11
3.905
 21
0.76
 31
0.0
  0
LINE
  5
1A3
330
2B6
100
AcDbEntity
  8
expand
100
AcDbLine
 10
3.905
 20
0.45
 30
0.0
 11
3.595000000000001
 21
0.45
 31
0.0
  0
LINE
  5
1A4
330
2B6
100
AcDbEntity
  8
expand
100
AcDbLine
 10
4.425000000000001
 20
0.45
 30
0.0
 11
4.115000000000001
 21
0.45
 31
0.0
  0
LINE
  5
1A5
330
2B6
100
AcDbEntity
  8
expand
100
AcDbLine
 10
4.925000000000001
 20
0.45
 30
0.0
 11
4.615000000000001
 21
0.45
 31
0.0
  0
LINE
  5
1A6
330
2B6
100
AcDbEntity
  8
expand
100
AcDbLine
 10
5.445
 20
0.45
 30
0.0
 11
5.135000000000001
 21
0.45
 31
0.0
  0
LINE
  5
1A7
330
2B6
100
AcDbEntity
  8
expand
100
AcDbLine
 10
5.135000000000001
 20
0.76
 30
0.0
 11
5.445
 21
0.76
 31
0.0
  0
LINE
  5
1A8
330
2B6
100
AcDbEntity
  8
expand
100
AcDbLine
 10
4.615000000000001
 20
0.76
 30
0.0
 11
4.925000000000001
 21
0.76
 31
0.0
  0
LINE
  5
1A9
330
2B6
100
AcDbEntity
  8
expand
100
AcDbLine
 10
4.115000000000001
 20
0.76
 30
0.0
 11
4.425000000000001
 21
0.76
 31
0.0
  0
LINE
  5
1AA
330
2B6
100
AcDbEntity
  8
expand
100
AcDbLine
 10
5.685
 20
0.76
 30
0.0
 11
5.995
 21
0.76
 31
0.0
  0
LINE
  5
1AB
330
2B6
100
AcDbEntity
  8
expand
100
AcDbLine
 10
5.995
 20
0.45
 30
0.0
 11
5.685
 21
0.45
 31
0.0
  0
LINE
  5
1AC
330
2B6
100
AcDbEntity
  8
expand
100
AcDbLine
 10
6.50375
 20
0.46
 30
0.0
 11
6.50375
 21
0.955
 31
0.0
  0
LINE
  5
1AD
330
2B6
100
AcDbEntity
  8
expand
100
AcDbLine
 10
6.50375
 20
0.955
 30
0.0
 11
6.993749999999999
 21
0.955
 31
0.0
  0
LINE
  5
1AE
330
2B6
100
AcDbEntity
  8
expand
100
AcDbLine
 10
6.993749999999999
 20
0.46
 30
0.0
 11
6.993749999999999
 21
0.9549999999999998
 31
0.0
  0
LINE
  5
1AF
330
2B6
100
AcDbEntity
  8
expand
100
AcDbLine
 10
6.50375
 20
0.46
 30
0.0
 11
6.993749999999999
 21
0.46
 31
0.0
  0
LINE
  5
1B0
330
2B6
100
AcDbEntity
  8
expand
100
AcDbLine
 10
7.26375
 20
0.4
 30
0.0
 11
7.26375
 21
1.015
 31
0.0
  0
LINE
  5
1B1
330
2B6
100
AcDbEntity
  8
expand
100
AcDbLine
 10
7.26375
 20
1.015
 30
0.0
 11
7.873749999999999
 21
1.015
 31
0.0
  0
LINE
  5
1B2
330
2B6
100
AcDbEntity
  8
expand
100
AcDbLine
 10
7.873749999999999
 20
1.015
 30
0.0
 11
7.873749999999999
 21
0.3999999999999998
 31
0.0
  0
LINE
  5
1B3
330
2B6
100
AcDbEntity
  8
expand
100
AcDbLine
 10
7.873749999999999
 20
0.4
 30
0.0
 11
7.26375
 21
0.4
 31
0.0
  0
LINE
  5
1B4
330
2B6
100
AcDbEntity
  8
expand
100
AcDbLine
 10
8.128749999999998
 20
0.4
 30
0.0
 11
8.128749999999998
 21
1.015
 31
0.0
  0
LINE
  5
1B5
330
2B6
100
AcDbEntity
  8
expand
100
AcDbLine
 10
8.128749999999998
 20
1.015
 30
0.0
 11
8.738749999999998
 21
1.015
 31
0.0
  0
LINE
  5
1B6
330
2B6
100
AcDbEntity
  8
expand
100
AcDbLine
 10
8.738749999999998
 20
1.015
 30
0.0
 11
8.738749999999998
 21
0.3999999999999999
 31
0.0
  0
LINE
  5
1B7
330
2B6
100
AcDbEntity
  8
expand
100
AcDbLine
 10
8.738749999999998
 20
0.4
 30
0.0
 11
8.128749999999998
 21
0.4
 31
0.0
  0
LINE
  5
1B8
330
2B6
100
AcDbEntity
  8
expand
100
AcDbLine
 10
8.99375
 20
0.4
 30
0.0
 11
8.99375
 21
1.015
 31
0.0
  0
LINE
  5
1B9
330
2B6
100
AcDbEntity
  8
expand
100
AcDbLine
 10
8.99375
 20
1.015
 30
0.0
 11
9.60375
 21
1.015
 31
0.0
  0
LINE
  5
1BA
330
2B6
100
AcDbEntity
  8
expand
100
AcDbLine
 10
9.60375
 20
1.015
 30
0.0
 11
9.60375
 21
0.3999999999999999
 31
0.0
  0
LINE
  5
1BB
330
2B6
100
AcDbEntity
  8
expand
100
AcDbLine
 10
9.60375
 20
0.4
 30
0.0
 11
8.99375
 21
0.4
 31
0.0
  0
LINE
  5
1BC
330
2B6
100
AcDbEntity
  8
expand
100
AcDbLine
 10
9.99375
 20
0.4
 30
0.0
 11
9.99375
 21
1.015
 31
0.0
  0
LINE
  5
1BD
330
2B6
100
AcDbEntity
  8
expand
100
AcDbLine
 10
10.60375
 20
1.015
 30
0.0
 11
10.60375
 21
0.3999999999999999
 31
0.0
  0
LINE
  5
1BE
330
2B6
100
AcDbEntity
  8
expand
100
AcDbLine
 10
10.86875
 20
0.4
 30
0.0
 11
10.86875
 21
1.015
 31
0.0
  0
LINE
  5
1BF
330
2B6
100
AcDbEntity
  8
expand
100
AcDbLine
 10
11.47875
 20
1.015
 30
0.0
 11
11.47875
 21
0.3999999999999998
 31
0.0
  0
LINE
  5
1C0
330
2B6
100
AcDbEntity
  8
expand
100
AcDbLine
 10
10.86875
 20
1.015
 30
0.0
 11
11.47875
 21
1.015
 31
0.0
  0
LINE
  5
1C1
330
2B6
100
AcDbEntity
  8
expand
100
AcDbLine
 10
9.99375
 20
1.015
 30
0.0
 11
10.60375
 21
1.015
 31
0.0
  0
LINE
  5
1C2
330
2B6
100
AcDbEntity
  8
expand
100
AcDbLine
 10
10.60375
 20
0.4
 30
0.0
 11
9.99375
 21
0.4
 31
0.0
  0
LINE
  5
1C3
330
2B6
100
AcDbEntity
  8
expand
100
AcDbLine
 10
11.47875
 20
0.4
 30
0.0
 11
10.86875
 21
0.4
 31
0.0
  0
LINE
  5
1C4
330
2B6
100
AcDbEntity
  8
expand
100
AcDbLine
 10
11.72875
 20
0.4
 30
0.0
 11
11.72875
 21
1.015
 31
0.0
  0
LINE
  5
1C5
330
2B6
100
AcDbEntity
  8
expand
100
AcDbLine
 10
11.72875
 20
1.015
 30
0.0
 11
12.33875
 21
1.015
 31
0.0
  0
LINE
  5
1C6
330
2B6
100
AcDbEntity
  8
expand
100
AcDbLine
 10
12.33875
 20
1.015
 30
0.0
 11
12.33875
 21
0.3999999999999999
 31
0.0
  0
LINE
  5
1C7
330
2B6
100
AcDbEntity
  8
expand
100
AcDbLine
 10
12.33875
 20
0.4
 30
0.0
 11
11.72875
 21
0.4
 31
0.0
  0
CIRCLE
  5
1C8
330
2B6
100
AcDbEntity
  8
expand
100
AcDbCircle
 10
14.33875
 20
1.74
 30
0.0
 40
1.29
  0
LINE
  5
1C9
330
2B6
100
AcDbEntity
  8
expand
100
AcDbLine
 10
6.960000000000001
 20
2.61
 30
0.0
 11
7.34
 21
2.61
 31
0.0
  0
LINE
  5
1CA
330
2B6
100
AcDbEntity
  8
expand
100
AcDbLine
 10
7.34
 20
2.23
 30
0.0
 11
6.960000000000001
 21
2.23
 31
0.0
  0
LINE
  5
1CB
330
2B6
100
AcDbEntity
  8
expand
100
AcDbLine
 10
6.960000000000001
 20
2.14
 30
0.0
 11
7.34
 21
2.14
 31
0.0
  0
LINE
  5
1CC
330
2B6
100
AcDbEntity
  8
expand
100
AcDbLine
 10
7.34
 20
1.76
 30
0.0
 11
6.960000000000001
 21
1.76
 31
0.0
  0
LINE
  5
1CD
330
2B6
100
AcDbEntity
  8
expand
100
AcDbLine
 10
6.960000000000001
 20
1.67
 30
0.0
 11
7.34
 21
1.67
 31
0.0
  0
LINE
  5
1CE
330
2B6
100
AcDbEntity
  8
expand
100
AcDbLine
 10
7.34
 20
1.29
 30
0.0
 11
6.960000000000001
 21
1.29
 31
0.0
  0
LINE
  5
1CF
330
2B6
100
AcDbEntity
  8
expand
100
AcDbLine
 10
7.34
 20
1.67
 30
0.0
 11
7.34
 21
1.29
 31
0.0
  0
LINE
  5
1D0
330
2B6
100
AcDbEntity
  8
expand
100
AcDbLine
 10
6.960000000000001
 20
1.29
 30
0.0
 11
6.960000000000001
 21
1.67
 31
0.0
  0
LINE
  5
1D1
330
2B6
100
AcDbEntity
  8
expand
100
AcDbLine
 10
6.960000000000001
 20
1.76
 30
0.0
 11
6.960000000000001
 21
2.14
 31
0.0
  0
LINE
  5
1D2
330
2B6
100
AcDbEntity
  8
expand
100
AcDbLine
 10
7.34
 20
2.14
 30
0.0
 11
7.34
 21
1.76
 31
0.0
  0
LINE
  5
1D3
330
2B6
100
AcDbEntity
  8
expand
100
AcDbLine
 10
7.34
 20
2.61
 30
0.0
 11
7.34
 21
2.23
 31
0.0
  0
LINE
  5
1D4
330
2B6
100
AcDbEntity
  8
expand
100
AcDbLine
 10
6.960000000000001
 20
2.23
 30
0.0
 11
6.960000000000001
 21
2.61
 31
0.0
  0
LINE
  5
1D5
330
2B6
100
AcDbEntity
  8
expand
100
AcDbLine
 10
6.49
 20
2.14
 30
0.0
 11
6.87
 21
2.14
 31
0.0
  0
LINE
  5
1D6
330
2B6
100
AcDbEntity
  8
expand
100
AcDbLine
 10
6.49
 20
1.76
 30
0.0
 11
6.49
 21
2.14
 31
0.0
  0
LINE
  5
1D7
330
2B6
100
AcDbEntity
  8
expand
100
AcDbLine
 10
6.87
 20
1.76
 30
0.0
 11
6.49
 21
1.76
 31
0.0
  0
LINE
  5
1D8
330
2B6
100
AcDbEntity
  8
expand
100
AcDbLine
 10
6.87
 20
2.14
 30
0.0
 11
6.87
 21
1.76
 31
0.0
  0
LINE
  5
1D9
330
2B6
100
AcDbEntity
  8
expand
100
AcDbLine
 10
7.43
 20
1.76
 30
0.0
 11
7.43
 21
2.14
 31
0.0
  0
LINE
  5
1DA
330
2B6
100
AcDbEntity
  8
expand
100
AcDbLine
 10
7.43
 20
2.14
 30
0.0
 11
7.81
 21
2.14
 31
0.0
  0
LINE
  5
1DB
330
2B6
100
AcDbEntity
  8
expand
100
AcDbLine
 10
7.81
 20
2.14
 30
0.0
 11
7.81
 21
1.76
 31
0.0
  0
LINE
  5
1DC
330
2B6
100
AcDbEntity
  8
expand
100
AcDbLine
 10
7.81
 20
1.76
 30
0.0
 11
7.43
 21
1.76
 31
0.0
  0
LINE
  5
1DD
330
2B6
100
AcDbEntity
  8
expand
100
AcDbLine
 10
9.60375
 20
1.62
 30
0.0
 11
8.128749999999998
 21
1.62
 31
0.0
  0
LINE
  5
1DE
330
2B6
100
AcDbEntity
  8
expand
100
AcDbLine
 10
9.60375
 20
2.235
 30
0.0
 11
9.60375
 21
1.62
 31
0.0
  0
LINE
  5
1DF
330
2B6
100
AcDbEntity
  8
expand
100
AcDbLine
 10
8.128749999999998
 20
2.235
 30
0.0
 11
9.60375
 21
2.235
 31
0.0
  0
LINE
  5
1E0
330
2B6
100
AcDbEntity
  8
expand
100
AcDbLine
 10
8.128749999999998
 20
1.62
 30
0.0
 11
8.128749999999998
 21
2.235
 31
0.0
  0
LINE
  5
1E1
330
2B6
100
AcDbEntity
  8
expand
100
AcDbLine
 10
10.54375
 20
2.175
 30
0.0
 11
10.54375
 21
1.68
 31
0.0
  0
LINE
  5
1E2
330
2B6
100
AcDbEntity
  8
expand
100
AcDbLine
 10
10.05375
 20
2.175
 30
0.0
 11
10.54375
 21
2.175
 31
0.0
  0
LINE
  5
1E3
330
2B6
100
AcDbEntity
  8
expand
100
AcDbLine
 10
10.05375
 20
1.68
 30
0.0
 11
10.05375
 21
2.175
 31
0.0
  0
LINE
  5
1E4
330
2B6
100
AcDbEntity
  8
expand
100
AcDbLine
 10
10.54375
 20
1.68
 30
0.0
 11
10.05375
 21
1.68
 31
0.0
  0
LINE
  5
1E5
330
2B6
100
AcDbEntity
  8
expand
100
AcDbLine
 10
10.86875
 20
1.62
 30
0.0
 11
10.86875
 21
2.235
 31
0.0
  0
LINE
  5
1E6
330
2B6
100
AcDbEntity
  8
expand
100
AcDbLine
 10
10.86875
 20
2.235
 30
0.0
 11
11.47875
 21
2.235
 31
0.0
  0
LINE
  5
1E7
330
2B6
100
AcDbEntity
  8
expand
100
AcDbLine
 10
11.47875
 20
2.235
 30
0.0
 11
11.47875
 21
1.62
 31
0.0
  0
LINE
  5
1E8
330
2B6
100
AcDbEntity
  8
expand
100
AcDbLine
 10
11.47875
 20
1.62
 30
0.0
 11
10.86875
 21
1.62
 31
0.0
  0
LINE
  5
1E9
330
2B6
100
AcDbEntity
  8
expand
100
AcDbLine
 10
11.58875
 20
1.62
 30
0.0
 11
11.58875
 21
2.235
 31
0.0
  0
LINE
  5
1EA
330
2B6
100
AcDbEntity
  8
expand
100
AcDbLine
 10
12.47875
 20
2.235
 30
0.0
 11
12.47875
 21
1.62
 31
0.0
  0
LINE
  5
1EB
330
2B6
100
AcDbEntity
  8
expand
100
AcDbLine
 10
11.58875
 20
2.235
 30
0.0
 11
12.47875
 21
2.235
 31
0.0
  0
LINE
  5
1EC
330
2B6
100
AcDbEntity
  8
expand
100
AcDbLine
 10
12.47875
 20
1.62
 30
0.0
 11
11.58875
 21
1.62
 31
0.0
  0
LINE
  5
1ED
330
2B6
100
AcDbEntity
  8
expand
100
AcDbLine
 10
10.50375
 20
5.7225
 30
0.0
 11
10.50375
 21
3.8425
 31
0.0
  0
LINE
  5
1EE
330
2B6
100
AcDbEntity
  8
expand
100
AcDbLine
 10
10.50375
 20
5.7225
 30
0.0
 11
9.87375
 21
5.7225
 31
0.0
  0
LINE
  5
1EF
330
2B6
100
AcDbEntity
  8
expand
100
AcDbLine
 10
9.87375
 20
5.7225
 30
0.0
 11
9.87375
 21
3.8425
 31
0.0
  0
LINE
  5
1F0
330
2B6
100
AcDbEntity
  8
expand
100
AcDbLine
 10
10.78375
 20
5.1625
 30
0.0
 11
11.13375
 21
5.1625
 31
0.0
  0
LINE
  5
1F1
330
2B6
100
AcDbEntity
  8
expand
100
AcDbLine
 10
11.29045
 20
5.1625
 30
0.0
 11
11.64045
 21
5.1625
 31
0.0
  0
LINE
  5
1F2
330
2B6
100
AcDbEntity
  8
expand
100
AcDbLine
 10
11.29045
 20
4.8125
 30
0.0
 11
11.29045
 21
5.1625
 31
0.0
  0
LINE
  5
1F3
330
2B6
100
AcDbEntity
  8
expand
100
AcDbLine
 10
11.13375
 20
5.1625
 30
0.0
 11
11.13375
 21
4.8125
 31
0.0
  0
LINE
  5
1F4
330
2B6
100
AcDbEntity
  8
expand
100
AcDbLine
 10
10.78375
 20
4.8125
 30
0.0
 11
10.78375
 21
5.1625
 31
0.0
  0
CIRCLE
  5
1F5
330
2B6
100
AcDbEntity
  8
expand
100
AcDbCircle
 10
13.39075
 20
6.0395
 30
0.0
 40
0.304
  0
LINE
  5
1F6
330
2B6
100
AcDbEntity
  8
expand
100
AcDbLine
 10
14.88275
 20
6.3125
 30
0.0
 11
15.67475
 21
6.3125
 31
0.0
  0
LINE
  5
1F7
330
2B6
100
AcDbEntity
  8
expand
100
AcDbLine
 10
15.67475
 20
6.3125
 30
0.0
 11
15.67475
 21
5.787500000000001
 31
0.0
  0
LINE
  5
1F8
330
2B6
100
AcDbEntity
  8
expand
100
AcDbLine
 10
15.67475
 20
5.787500000000001
 30
0.0
 11
14.88275
 21
5.787500000000001
 31
0.0
  0
LINE
  5
1F9
330
2B6
100
AcDbEntity
  8
expand
100
AcDbLine
 10
14.88275
 20
5.787500000000001
 30
0.0
 11
14.88275
 21
6.3125
 31
0.0
  0
LINE
  5
1FA
330
2B6
100
AcDbEntity
  8
expand
100
AcDbLine
 10
11.64045
 20
5.1625
 30
0.0
 11
11.64045
 21
4.8125
 31
0.0
  0
LINE
  5
1FB
330
2B6
100
AcDbEntity
  8
expand
100
AcDbLine
 10
11.64045
 20
4.8125
 30
0.0
 11
11.29045
 21
4.8125
 31
0.0
  0
LINE
  5
1FC
330
2B6
100
AcDbEntity
  8
expand
100
AcDbLine
 10
11.13375
 20
4.8125
 30
0.0
 11
10.78375
 21
4.8125
 31
0.0
  0
LINE
  5
1FD
330
2B6
100
AcDbEntity
  8
expand
100
AcDbLine
 10
10.78375
 20
4.579499999999999
 30
0.0
 11
11.13375
 21
4.579499999999999
 31
0.0
  0
LINE
  5
1FE
330
2B6
100
AcDbEntity
  8
expand
100
AcDbLine
 10
11.29045
 20
4.579499999999999
 30
0.0
 11
11.64045
 21
4.579499999999999
 31
0.0
  0
LINE
  5
1FF
330
2B6
100
AcDbEntity
  8
expand
100
AcDbLine
 10
11.79705
 20
4.579499999999999
 30
0.0
 11
12.14705
 21
4.579499999999999
 31
0.0
  0
LINE
  5
200
330
2B6
100
AcDbEntity
  8
expand
100
AcDbLine
 10
12.30375
 20
4.579499999999999
 30
0.0
 11
12.65375
 21
4.579499999999999
 31
0.0
  0
LINE
  5
201
330
2B6
100
AcDbEntity
  8
expand
100
AcDbLine
 10
12.65375
 20
4.2295
 30
0.0
 11
12.30375
 21
4.2295
 31
0.0
  0
LINE
  5
202
330
2B6
100
AcDbEntity
  8
expand
100
AcDbLine
 10
12.14705
 20
4.2295
 30
0.0
 11
11.79705
 21
4.2295
 31
0.0
  0
LINE
  5
203
330
2B6
100
AcDbEntity
  8
expand
100
AcDbLine
 10
11.64045
 20
4.2295
 30
0.0
 11
11.29045
 21
4.2295
 31
0.0
  0
LINE
  5
204
330
2B6
100
AcDbEntity
  8
expand
100
AcDbLine
 10
11.13375
 20
4.2295
 30
0.0
 11
10.78375
 21
4.2295
 31
0.0
  0
LINE
  5
205
330
2B6
100
AcDbEntity
  8
expand
100
AcDbLine
 10
11.79705
 20
4.8125
 30
0.0
 11
11.79705
 21
5.1625
 31
0.0
  0
LINE
  5
206
330
2B6
100
AcDbEntity
  8
expand
100
AcDbLine
 10
12.14705
 20
5.1625
 30
0.0
 11
12.14705
 21
4.8125
 31
0.0
  0
LINE
  5
207
330
2B6
100
AcDbEntity
  8
expand
100
AcDbLine
 10
12.30375
 20
4.8125
 30
0.0
 11
12.30375
 21
5.1625
 31
0.0
  0
LINE
  5
208
330
2B6
100
AcDbEntity
  8
expand
100
AcDbLine
 10
12.65375
 20
5.1625
 30
0.0
 11
12.65375
 21
4.8125
 31
0.0
  0
LINE
  5
209
330
2B6
100
AcDbEntity
  8
expand
100
AcDbLine
 10
12.30375
 20
5.1625
 30
0.0
 11
12.65375
 21
5.1625
 31
0.0
  0
LINE
  5
20A
330
2B6
100
AcDbEntity
  8
expand
100
AcDbLine
 10
12.65375
 20
4.8125
 30
0.0
 11
12.30375
 21
4.8125
 31
0.0
  0
LINE
  5
20B
330
2B6
100
AcDbEntity
  8
expand
100
AcDbLine
 10
11.79705
 20
5.1625
 30
0.0
 11
12.14705
 21
5.1625
 31
0.0
  0
LINE
  5
20C
330
2B6
100
AcDbEntity
  8
expand
100
AcDbLine
 10
12.14705
 20
4.8125
 30
0.0
 11
11.79705
 21
4.8125
 31
0.0
  0
LINE
  5
20D
330
2B6
100
AcDbEntity
  8
expand
100
AcDbLine
 10
12.65375
 20
4.579499999999999
 30
0.0
 11
12.65375
 21
4.2295
 31
0.0
  0
LINE
  5
20E
330
2B6
100
AcDbEntity
  8
expand
100
AcDbLine
 10
12.30375
 20
4.2295
 30
0.0
 11
12.30375
 21
4.579499999999999
 31
0.0
  0
LINE
  5
20F
330
2B6
100
AcDbEntity
  8
expand
100
AcDbLine
 10
12.14705
 20
4.579499999999999
 30
0.0
 11
12.14705
 21
4.2295
 31
0.0
  0
LINE
  5
210
330
2B6
100
AcDbEntity
  8
expand
100
AcDbLine
 10
11.79705
 20
4.2295
 30
0.0
 11
11.79705
 21
4.579499999999999
 31
0.0
  0
LINE
  5
211
330
2B6
100
AcDbEntity
  8
expand
100
AcDbLine
 10
11.64045
 20
4.579499999999999
 30
0.0
 11
11.64045
 21
4.2295
 31
0.0
  0
LINE
  5
212
330
2B6
100
AcDbEntity
  8
expand
100
AcDbLine
 10
11.29045
 20
4.2295
 30
0.0
 11
11.29045
 21
4.579499999999999
 31
0.0
  0
LINE
  5
213
330
2B6
100
AcDbEntity
  8
expand
100
AcDbLine
 10
11.13375
 20
4.579499999999999
 30
0.0
 11
11.13375
 21
4.2295
 31
0.0
  0
LINE
  5
214
330
2B6
100
AcDbEntity
  8
expand
100
AcDbLine
 10
10.78375
 20
4.2295
 30
0.0
 11
10.78375
 21
4.579499999999999
 31
0.0
  0
LINE
  5
215
330
2B6
100
AcDbEntity
  8
expand
100
AcDbLine
 10
12.30375
 20
3.9955
 30
0.0
 11
12.65375
 21
3.9955
 31
0.0
  0
LINE
  5
216
330
2B6
100
AcDbEntity
  8
expand
100
AcDbLine
 10
11.79705
 20
3.9955
 30
0.0
 11
12.14705
 21
3.9955
 31
0.0
  0
LINE
  5
217
330
2B6
100
AcDbEntity
  8
expand
100
AcDbLine
 10
10.78375
 20
3.9955
 30
0.0
 11
11.13375
 21
3.9955
 31
0.0
  0
LINE
  5
218
330
2B6
100
AcDbEntity
  8
expand
100
AcDbLine
 10
11.29045
 20
3.9955
 30
0.0
 11
11.64045
 21
3.9955
 31
0.0
  0
LINE
  5
219
330
2B6
100
AcDbEntity
  8
expand
100
AcDbLine
 10
11.64045
 20
3.6455
 30
0.0
 11
11.29045
 21
3.6455
 31
0.0
  0
LINE
  5
21A
330
2B6
100
AcDbEntity
  8
expand
100
AcDbLine
 10
11.13375
 20
3.6455
 30
0.0
 11
10.78375
 21
3.6455
 31
0.0
  0
LINE
  5
21B
330
2B6
100
AcDbEntity
  8
expand
100
AcDbLine
 10
12.14705
 20
3.6455
 30
0.0
 11
11.79705
 21
3.6455
 31
0.0
  0
LINE
  5
21C
330
2B6
100
AcDbEntity
  8
expand
100
AcDbLine
 10
12.65375
 20
3.6455
 30
0.0
 11
12.30375
 21
3.6455
 31
0.0
  0
LINE
  5
21D
330
2B6
100
AcDbEntity
  8
expand
100
AcDbLine
 10
12.65375
 20
3.4125
 30
0.0
 11
12.65375
 21
3.0625
 31
0.0
  0
LINE
  5
21E
330
2B6
100
AcDbEntity
  8
expand
100
AcDbLine
 10
12.30375
 20
3.4125
 30
0.0
 11
12.65375
 21
3.4125
 31
0.0
  0
LINE
  5
21F
330
2B6
100
AcDbEntity
  8
expand
100
AcDbLine
 10
12.65375
 20
3.0625
 30
0.0
 11
12.30375
 21
3.0625
 31
0.0
  0
LINE
  5
220
330
2B6
100
AcDbEntity
  8
expand
100
AcDbLine
 10
12.30375
 20
3.0625
 30
0.0
 11
12.30375
 21
3.4125
 31
0.0
  0
LINE
  5
221
330
2B6
100
AcDbEntity
  8
expand
100
AcDbLine
 10
12.14705
 20
3.4125
 30
0.0
 11
12.14705
 21
3.0625
 31
0.0
  0
LINE
  5
222
330
2B6
100
AcDbEntity
  8
expand
100
AcDbLine
 10
11.79705
 20
3.4125
 30
0.0
 11
12.14705
 21
3.4125
 31
0.0
  0
LINE
  5
223
330
2B6
100
AcDbEntity
  8
expand
100
AcDbLine
 10
11.79705
 20
3.0625
 30
0.0
 11
11.79705
 21
3.4125
 31
0.0
  0
LINE
  5
224
330
2B6
100
AcDbEntity
  8
expand
100
AcDbLine
 10
12.14705
 20
3.0625
 30
0.0
 11
11.79705
 21
3.0625
 31
0.0
  0
LINE
  5
225
330
2B6
100
AcDbEntity
  8
expand
100
AcDbLine
 10
11.64045
 20
3.4125
 30
0.0
 11
11.64045
 21
3.0625
 31
0.0
  0
LINE
  5
226
330
2B6
100
AcDbEntity
  8
expand
100
AcDbLine
 10
11.29045
 20
3.4125
 30
0.0
 11
11.64045
 21
3.4125
 31
0.0
  0
LINE
  5
227
330
2B6
100
AcDbEntity
  8
expand
100
AcDbLine
 10
11.29045
 20
3.0625
 30
0.0
 11
11.29045
 21
3.4125
 31
0.0
  0
LINE
  5
228
330
2B6
100
AcDbEntity
  8
expand
100
AcDbLine
 10
11.64045
 20
3.0625
 30
0.0
 11
11.29045
 21
3.0625
 31
0.0
  0
LINE
  5
229
330
2B6
100
AcDbEntity
  8
expand
100
AcDbLine
 10
11.13375
 20
3.4125
 30
0.0
 11
11.13375
 21
3.0625
 31
0.0
  0
LINE
  5
22A
330
2B6
100
AcDbEntity
  8
expand
100
AcDbLine
 10
10.78375
 20
3.4125
 30
0.0
 11
11.13375
 21
3.4125
 31
0.0
  0
LINE
  5
22B
330
2B6
100
AcDbEntity
  8
expand
100
AcDbLine
 10
10.78375
 20
3.0625
 30
0.0
 11
10.78375
 21
3.4125
 31
0.0
  0
LINE
  5
22C
330
2B6
100
AcDbEntity
  8
expand
100
AcDbLine
 10
11.13375
 20
3.0625
 30
0.0
 11
10.78375
 21
3.0625
 31
0.0
  0
LINE
  5
22D
330
2B6
100
AcDbEntity
  8
expand
100
AcDbLine
 10
11.29045
 20
3.6455
 30
0.0
 11
11.29045
 21
3.9955
 31
0.0
  0
LINE
  5
22E
330
2B6
100
AcDbEntity
  8
expand
100
AcDbLine
 10
11.64045
 20
3.9955
 30
0.0
 11
11.64045
 21
3.6455
 31
0.0
  0
LINE
  5
22F
330
2B6
100
AcDbEntity
  8
expand
100
AcDbLine
 10
11.79705
 20
3.6455
 30
0.0
 11
11.79705
 21
3.9955
 31
0.0
  0
LINE
  5
230
330
2B6
100
AcDbEntity
  8
expand
100
AcDbLine
 10
12.14705
 20
3.9955
 30
0.0
 11
12.14705
 21
3.6455
 31
0.0
  0
LINE
  5
231
330
2B6
100
AcDbEntity
  8
expand
100
AcDbLine
 10
12.30375
 20
3.6455
 30
0.0
 11
12.30375
 21
3.9955
 31
0.0
  0
LINE
  5
232
330
2B6
100
AcDbEntity
  8
expand
100
AcDbLine
 10
12.65375
 20
3.9955
 30
0.0
 11
12.65375
 21
3.6455
 31
0.0
  0
LINE
  5
233
330
2B6
100
AcDbEntity
  8
expand
100
AcDbLine
 10
11.13375
 20
3.9955
 30
0.0
 11
11.13375
 21
3.6455
 31
0.0
  0
LINE
  5
234
330
2B6
100
AcDbEntity
  8
expand
100
AcDbLine
 10
10.78375
 20
3.6455
 30
0.0
 11
10.78375
 21
3.9955
 31
0.0
  0
LINE
  5
235
330
2B6
100
AcDbEntity
  8
expand
100
AcDbLine
 10
14.03625
 20
3.8125
 30
0.0
 11
14.03625
 21
4.4275
 31
0.0
  0
LINE
  5
236
330
2B6
100
AcDbEntity
  8
expand
100
AcDbLine
 10
14.64625
 20
4.4275
 30
0.0
 11
14.64625
 21
3.8125
 31
0.0
  0
LINE
  5
237
330
2B6
100
AcDbEntity
  8
expand
100
AcDbLine
 10
14.89375
 20
3.8125
 30
0.0
 11
14.89375
 21
4.4275
 31
0.0
  0
LINE
  5
238
330
2B6
100
AcDbEntity
  8
expand
100
AcDbLine
 10
15.50375
 20
4.4275
 30
0.0
 11
15.50375
 21
3.8125
 31
0.0
  0
LINE
  5
239
330
2B6
100
AcDbEntity
  8
expand
100
AcDbLine
 10
13.78875
 20
4.4275
 30
0.0
 11
13.78875
 21
3.8125
 31
0.0
  0
LINE
  5
23A
330
2B6
100
AcDbEntity
  8
expand
100
AcDbLine
 10
13.17875
 20
3.8125
 30
0.0
 11
13.17875
 21
4.4275
 31
0.0
  0
LINE
  5
23B
330
2B6
100
AcDbEntity
  8
expand
100
AcDbLine
 10
13.17875
 20
4.4275
 30
0.0
 11
13.78875
 21
4.4275
 31
0.0
  0
LINE
  5
23C
330
2B6
100
AcDbEntity
  8
expand
100
AcDbLine
 10
13.78875
 20
3.8125
 30
0.0
 11
13.17875
 21
3.8125
 31
0.0
  0
LINE
  5
23D
330
2B6
100
AcDbEntity
  8
expand
100
AcDbLine
 10
14.64625
 20
3.8125
 30
0.0
 11
14.03625
 21
3.8125
 31
0.0
  0
LINE
  5
23E
330
2B6
100
AcDbEntity
  8
expand
100
AcDbLine
 10
14.03625
 20
4.4275
 30
0.0
 11
14.64625
 21
4.4275
 31
0.0
  0
LINE
  5
23F
330
2B6
100
AcDbEntity
  8
expand
100
AcDbLine
 10
14.89375
 20
4.4275
 30
0.0
 11
15.50375
 21
4.4275
 31
0.0
  0
LINE
  5
240
330
2B6
100
AcDbEntity
  8
expand
100
AcDbLine
 10
15.50375
 20
3.8125
 30
0.0
 11
14.89375
 21
3.8125
 31
0.0
  0
LINE
  5
241
330
2B6
100
AcDbEntity
  8
expand
100
AcDbLine
 10
15.52875
 20
4.783500000000002
 30
0.0
 11
15.03875
 21
4.783500000000002
 31
0.0
  0
LINE
  5
242
330
2B6
100
AcDbEntity
  8
expand
100
AcDbLine
 10
14.89875
 20
4.783500000000002
 30
0.0
 11
14.40875
 21
4.783500000000002
 31
0.0
  0
LINE
  5
243
330
2B6
100
AcDbEntity
  8
expand
100
AcDbLine
 10
14.27875
 20
4.783500000000002
 30
0.0
 11
13.78875
 21
4.783500000000002
 31
0.0
  0
LINE
  5
244
330
2B6
100
AcDbEntity
  8
expand
100
AcDbLine
 10
13.64875
 20
4.783500000000002
 30
0.0
 11
13.15875
 21
4.783500000000002
 31
0.0
  0
LINE
  5
245
330
2B6
100
AcDbEntity
  8
expand
100
AcDbLine
 10
13.64875
 20
5.278499999999999
 30
0.0
 11
13.64875
 21
4.783500000000002
 31
0.0
  0
LINE
  5
246
330
2B6
100
AcDbEntity
  8
expand
100
AcDbLine
 10
13.78875
 20
4.783500000000002
 30
0.0
 11
13.78875
 21
5.278499999999999
 31
0.0
  0
LINE
  5
247
330
2B6
100
AcDbEntity
  8
expand
100
AcDbLine
 10
14.27875
 20
5.278499999999999
 30
0.0
 11
14.27875
 21
4.783500000000002
 31
0.0
  0
LINE
  5
248
330
2B6
100
AcDbEntity
  8
expand
100
AcDbLine
 10
14.40875
 20
4.783500000000002
 30
0.0
 11
14.40875
 21
5.278499999999999
 31
0.0
  0
LINE
  5
249
330
2B6
100
AcDbEntity
  8
expand
100
AcDbLine
 10
14.89875
 20
5.278499999999999
 30
0.0
 11
14.89875
 21
4.783500000000002
 31
0.0
  0
LINE
  5
24A
330
2B6
100
AcDbEntity
  8
expand
100
AcDbLine
 10
15.03875
 20
4.783500000000002
 30
0.0
 11
15.03875
 21
5.278499999999999
 31
0.0
  0
LINE
  5
24B
330
2B6
100
AcDbEntity
  8
expand
100
AcDbLine
 10
15.52875
 20
5.278499999999999
 30
0.0
 11
15.52875
 21
4.783500000000002
 31
0.0
  0
LINE
  5
24C
330
2B6
100
AcDbEntity
  8
expand
100
AcDbLine
 10
13.15875
 20
4.783500000000002
 30
0.0
 11
13.15875
 21
5.278499999999999
 31
0.0
  0
LINE
  5
24D
330
2B6
100
AcDbEntity
  8
expand
100
AcDbLine
 10
10.50375
 20
3.8425
 30
0.0
 11
9.87375
 21
3.8425
 31
0.0
  0
LINE
  5
24E
330
2B6
100
AcDbEntity
  8
expand
100
AcDbLine
 10
13.15875
 20
5.278499999999999
 30
0.0
 11
13.64875
 21
5.278499999999999
 31
0.0
  0
LINE
  5
24F
330
2B6
100
AcDbEntity
  8
expand
100
AcDbLine
 10
13.78875
 20
5.278499999999999
 30
0.0
 11
14.27875
 21
5.278499999999999
 31
0.0
  0
LINE
  5
250
330
2B6
100
AcDbEntity
  8
expand
100
AcDbLine
 10
14.40875
 20
5.278499999999999
 30
0.0
 11
14.89875
 21
5.278499999999999
 31
0.0
  0
LINE
  5
251
330
2B6
100
AcDbEntity
  8
expand
100
AcDbLine
 10
15.03875
 20
5.278499999999999
 30
0.0
 11
15.52875
 21
5.278499999999999
 31
0.0
  0
ARC
  5
252
330
2B6
100
AcDbEntity
  8
expand
100
AcDbCircle
 10
0.025
 20
6.9125
 30
0.0
 40
0.025
100
AcDbArc
 50
89.99999999999513
 51
180.0
  0
ARC
  5
253
330
2B6
100
AcDbEntity
  8
expand
100
AcDbCircle
 10
0.025
 20
0.875
 30
0.0
 40
0.025
100
AcDbArc
 50
180.0
 51
270.0
  0
ARC
  5
254
330
2B6
100
AcDbEntity
  8
expand
100
AcDbCircle
 10
0.2
 20
0.825
 30
0.0
 40
0.025
100
AcDbArc
 50
0.0
 51
90.0
  0
ARC
  5
255
330
2B6
100
AcDbEntity
  8
expand
100
AcDbCircle
 10
0.25
 20
0.025
 30
0.0
 40
0.025
100
AcDbArc
 50
180.0
 51
270.0
  0
ARC
  5
256
330
2B6
100
AcDbEntity
  8
expand
100
AcDbCircle
 10
15.71875
 20
0.025
 30
0.0
 40
0.025
100
AcDbArc
 50
270.0
 51
0.0
  0
LINE
  5
257
330
2B6
100
AcDbEntity
  8
expand
100
AcDbLine
 10
15.94375
 20
6.9375
 30
0.0
 11
0.0250000000000039
 21
6.9375
 31
0.0
  0
ARC
  5
258
330
2B6
100
AcDbEntity
  8
expand
100
AcDbCircle
 10
15.76875
 20
0.825
 30
0.0
 40
0.025
100
AcDbArc
 50
90.0
 51
180.0
  0
LINE
  5
259
330
2B6
100
AcDbEntity
  8
expand
100
AcDbLine
 10
0.0
 20
6.9125
 30
0.0
 11
0.0
 21
0.875
 31
0.0
  0
ARC
  5
25A
330
2B6
100
AcDbEntity
  8
expand
100
AcDbCircle
 10
15.94375
 20
0.875
 30
0.0
 40
0.025
100
AcDbArc
 50
270.0
 51
0.0
  0
LINE
  5
25B
330
2B6
100
AcDbEntity
  8
expand
100
AcDbLine
 10
15.74375
 20
0.025
 30
0.0
 11
15.74375
 21
0.825
 31
0.0
  0
ARC
  5
25C
330
2B6
100
AcDbEntity
  8
expand
100
AcDbCircle
 10
15.94375
 20
6.9125
 30
0.0
 40
0.025
100
AcDbArc
 50
0.0
 51
90.0
  0
LINE
  5
25D
330
2B6
100
AcDbEntity
  8
expand
100
AcDbLine
 10
0.025
 20
0.85
 30
0.0
 11
0.2
 21
0.85
 31
0.0
  0
LINE
  5
25E
330
2B6
100
AcDbEntity
  8
expand
100
AcDbLine
 10
15.76875
 20
0.85
 30
0.0
 11
15.94375
 21
0.85
 31
0.0
  0
LINE
  5
25F
330
2B6
100
AcDbEntity
  8
expand
100
AcDbLine
 10
0.225
 20
0.825
 30
0.0
 11
0.225
 21
0.025
 31
0.0
  0
LINE
  5
260
330
2B6
100
AcDbEntity
  8
expand
100
AcDbLine
 10
15.96875
 20
0.875
 30
0.0
 11
15.96875
 21
6.9125
 31
0.0
  0
LINE
  5
261
330
2B6
100
AcDbEntity
  8
expand
100
AcDbLine
 10
0.25
 20
0.0
 30
0.0
 11
15.71875
 21
0.0
 31
0.0
  0
LINE
  5
262
330
2B6
100
AcDbEntity
  8
expand
100
AcDbLine
 10
12.46875
 20
6.407500000000001
 30
0.0
 11
12.23875
 21
6.407500000000001
 31
0.0
  0
LINE
  5
263
330
2B6
100
AcDbEntity
  8
expand
100
AcDbLine
 10
12.46875
 20
6.2175
 30
0.0
 11
12.23875
 21
6.2175
 31
0.0
  0
LINE
  5
265
330
2B6
100
AcDbEntity
  8
expand
100
AcDbLine
 10
12.46875
 20
5.7175
 30
0.0
 11
12.23875
 21
5.7175
 31
0.0
  0
LINE
  5
266
330
2B6
100
AcDbEntity
  8
expand
100
AcDbLine
 10
12.46875
 20
5.907500000000001
 30
0.0
 11
12.23875
 21
5.907500000000001
 31
0.0
  0
LINE
  5
267
330
2B6
100
AcDbEntity
  8
expand
100
AcDbLine
 10
12.46875
 20
5.7175
 30
0.0
 11
12.46875
 21
5.907500000000001
 31
0.0
  0
LINE
  5
268
330
2B6
100
AcDbEntity
  8
expand
100
AcDbLine
 10
10.94875
 20
5.7175
 30
0.0
 11
10.94875
 21
5.907500000000001
 31
0.0
  0
LINE
  5
26A
330
2B6
100
AcDbEntity
  8
expand
100
AcDbLine
 10
12.23875
 20
5.7175
 30
0.0
 11
12.23875
 21
5.907500000000001
 31
0.0
  0
LINE
  5
26B
330
2B6
100
AcDbEntity
  8
expand
100
AcDbLine
 10
12.03875
 20
5.7175
 30
0.0
 11
12.03875
 21
5.907500000000001
 31
0.0
  0
LINE
  5
26C
330
2B6
100
AcDbEntity
  8
expand
100
AcDbLine
 10
11.80875
 20
5.7175
 30
0.0
 11
11.80875
 21
5.907500000000001
 31
0.0
  0
LINE
  5
26F
330
2B6
100
AcDbEntity
  8
expand
100
AcDbLine
 10
11.17875
 20
5.7175
 30
0.0
 11
11.17875
 21
5.907500000000001
 31
0.0
  0
LINE
  5
270
330
2B6
100
AcDbEntity
  8
expand
100
AcDbLine
 10
10.94875
 20
6.2175
 30
0.0
 11
10.94875
 21
6.407500000000001
 31
0.0
  0
LINE
  5
271
330
2B6
100
AcDbEntity
  8
expand
100
AcDbLine
 10
11.17875
 20
6.2175
 30
0.0
 11
11.17875
 21
6.407500000000001
 31
0.0
  0
LINE
  5
272
330
2B6
100
AcDbEntity
  8
expand
100
AcDbLine
 10
11.17875
 20
6.2175
 30
0.0
 11
10.94875
 21
6.2175
 31
0.0
  0
LINE
  5
273
330
2B6
100
AcDbEntity
  8
expand
100
AcDbLine
 10
11.17875
 20
6.407500000000001
 30
0.0
 11
10.94875
 21
6.407500000000001
 31
0.0
  0
LINE
  5
274
330
2B6
100
AcDbEntity
  8
expand
100
AcDbLine
 10
11.60875
 20
6.407500000000001
 30
0.0
 11
11.37875
 21
6.407500000000001
 31
0.0
  0
LINE
  5
275
330
2B6
100
AcDbEntity
  8
expand
100
AcDbLine
 10
12.03875
 20
6.407500000000001
 30
0.0
 11
11.80875
 21
6.407500000000001
 31
0.0
  0
LINE
  5
276
330
2B6
100
AcDbEntity
  8
expand
100
AcDbLine
 10
12.03875
 20
6.2175
 30
0.0
 11
11.80875
 21
6.2175
 31
0.0
  0
LINE
  5
277
330
2B6
100
AcDbEntity
  8
expand
100
AcDbLine
 10
11.60875
 20
6.2175
 30
0.0
 11
11.37875
 21
6.2175
 31
0.0
  0
LINE
  5
278
330
2B6
100
AcDbEntity
  8
expand
100
AcDbLine
 10
11.60875
 20
6.2175
 30
0.0
 11
11.60875
 21
6.407500000000001
 31
0.0
  0
LINE
  5
279
330
2B6
100
AcDbEntity
  8
expand
100
AcDbLine
 10
11.80875
 20
6.2175
 30
0.0
 11
11.80875
 21
6.407500000000001
 31
0.0
  0
LINE
  5
27A
330
2B6
100
AcDbEntity
  8
expand
100
AcDbLine
 10
12.03875
 20
6.2175
 30
0.0
 11
12.03875
 21
6.407500000000001
 31
0.0
  0
LINE
  5
27B
330
2B6
100
AcDbEntity
  8
expand
100
AcDbLine
 10
12.23875
 20
6.2175
 30
0.0
 11
12.23875
 21
6.407500000000001
 31
0.0
  0
LINE
  5
27C
330
2B6
100
AcDbEntity
  8
expand
100
AcDbLine
 10
12.46875
 20
6.2175
 30
0.0
 11
12.46875
 21
6.407500000000001
 31
0.0
  0
LINE
  5
27D
330
2B6
100
AcDbEntity
  8
expand
100
AcDbLine
 10
12.03875
 20
5.907500000000001
 30
0.0
 11
11.80875
 21
5.907500000000001
 31
0.0
  0
LINE
  5
27E
330
2B6
100
AcDbEntity
  8
expand
100
AcDbLine
 10
12.03875
 20
5.7175
 30
0.0
 11
11.80875
 21
5.7175
 31
0.0
  0
LINE
  5
281
330
2B6
100
AcDbEntity
  8
expand
100
AcDbLine
 10
11.37875
 20
6.2175
 30
0.0
 11
11.37875
 21
6.407500000000001
 31
0.0
  0
LINE
  5
282
330
2B6
100
AcDbEntity
  8
expand
100
AcDbLine
 10
11.17875
 20
5.907500000000001
 30
0.0
 11
10.94875
 21
5.907500000000001
 31
0.0
  0
LINE
  5
283
330
2B6
100
AcDbEntity
  8
expand
100
AcDbLine
 10
11.17875
 20
5.7175
 30
0.0
 11
10.94875
 21
5.7175
 31
0.0
  0
LINE
  5
284
330
2B6
100
AcDbEntity
  8
expand
100
AcDbLine
 10
14.31875
 20
6.0775
 30
0.0
 11
14.31875
 21
6.2675
 31
0.0
  0
LINE
  5
285
330
2B6
100
AcDbEntity
  8
expand
100
AcDbLine
 10
14.08875
 20
6.0775
 30
0.0
 11
14.08875
 21
6.2675
 31
0.0
  0
LINE
  5
286
330
2B6
100
AcDbEntity
  8
expand
100
AcDbLine
 10
14.31875
 20
6.0775
 30
0.0
 11
14.08875
 21
6.0775
 31
0.0
  0
LINE
  5
287
330
2B6
100
AcDbEntity
  8
expand
100
AcDbLine
 10
14.31875
 20
6.2675
 30
0.0
 11
14.08875
 21
6.2675
 31
0.0
  0
LINE
  5
288
330
2B6
100
AcDbEntity
  8
expand
100
AcDbLine
 10
14.20875
 20
3.4375
 30
0.0
 11
14.20875
 21
3.627500000000001
 31
0.0
  0
LINE
  5
289
330
2B6
100
AcDbEntity
  8
expand
100
AcDbLine
 10
14.43875
 20
3.4375
 30
0.0
 11
14.43875
 21
3.627500000000001
 31
0.0
  0
LINE
  5
28A
330
2B6
100
AcDbEntity
  8
expand
100
AcDbLine
 10
14.63875
 20
3.4375
 30
0.0
 11
14.63875
 21
3.627500000000001
 31
0.0
  0
LINE
  5
28B
330
2B6
100
AcDbEntity
  8
expand
100
AcDbLine
 10
14.00875
 20
3.4375
 30
0.0
 11
14.00875
 21
3.627500000000001
 31
0.0
  0
LINE
  5
28C
330
2B6
100
AcDbEntity
  8
expand
100
AcDbLine
 10
13.77875
 20
3.4375
 30
0.0
 11
13.77875
 21
3.627500000000001
 31
0.0
  0
LINE
  5
28D
330
2B6
100
AcDbEntity
  8
expand
100
AcDbLine
 10
14.86875
 20
3.4375
 30
0.0
 11
14.86875
 21
3.627500000000001
 31
0.0
  0
LINE
  5
28E
330
2B6
100
AcDbEntity
  8
expand
100
AcDbLine
 10
14.86875
 20
3.6275
 30
0.0
 11
14.63875
 21
3.6275
 31
0.0
  0
LINE
  5
28F
330
2B6
100
AcDbEntity
  8
expand
100
AcDbLine
 10
14.86875
 20
3.4375
 30
0.0
 11
14.63875
 21
3.4375
 31
0.0
  0
LINE
  5
290
330
2B6
100
AcDbEntity
  8
expand
100
AcDbLine
 10
14.00875
 20
3.6275
 30
0.0
 11
13.77875
 21
3.6275
 31
0.0
  0
LINE
  5
291
330
2B6
100
AcDbEntity
  8
expand
100
AcDbLine
 10
14.00875
 20
3.4375
 30
0.0
 11
13.77875
 21
3.4375
 31
0.0
  0
LINE
  5
292
330
2B6
100
AcDbEntity
  8
expand
100
AcDbLine
 10
14.43875
 20
3.4375
 30
0.0
 11
14.20875
 21
3.4375
 31
0.0
  0
LINE
  5
293
330
2B6
100
AcDbEntity
  8
expand
100
AcDbLine
 10
14.43875
 20
3.6275
 30
0.0
 11
14.20875
 21
3.6275
 31
0.0
  0
LINE
  5
294
330
2B6
100
AcDbEntity
  8
expand
100
AcDbLine
 10
12.63875
 20
2.05
 30
0.0
 11
12.63875
 21
2.24
 31
0.0
  0
LINE
  5
295
330
2B6
100
AcDbEntity
  8
expand
100
AcDbLine
 10
12.86875
 20
2.05
 30
0.0
 11
12.86875
 21
2.24
 31
0.0
  0
LINE
  5
296
330
2B6
100
AcDbEntity
  8
expand
100
AcDbLine
 10
12.63875
 20
2.05
 30
0.0
 11
12.86875
 21
2.05
 31
0.0
  0
LINE
  5
297
330
2B6
100
AcDbEntity
  8
expand
100
AcDbLine
 10
12.63875
 20
2.24
 30
0.0
 11
12.86875
 21
2.24
 31
0.0
  0
ENDSEC
  0
SECTION
  2
OBJECTS
  0
DICTIONARY
  5
2A4
330
0
100
AcDbDictionary
281
     1
  3
ACAD_GROUP
350
2A5
  3
ACAD_LAYOUT
350
2B1
  3
ACAD_MATERIAL
350
2D2
  3
ACAD_MLEADERSTYLE
350
301
  3
ACAD_MLINESTYLE
350
2AE
  3
ACAD_PLOTSETTINGS
350
2B0
  3
ACAD_PLOTSTYLENAME
350
2A6
  3
ACAD_TABLESTYLE
350
300
  3
ACAD_VISUALSTYLE
350
2C1
  3
QCAD_OBJECTS
350
2D7
  0
DICTIONARY
  5
2A5
102
{ACAD_REACTORS
330
2A4
102
}
330
2A4
100
AcDbDictionary
281
     1
  0
DICTIONARY
  5
2B1
102
{ACAD_REACTORS
330
2A4
102
}
330
2A4
100
AcDbDictionary
281
     1
  3
Layout1
350
2B5
  3
Layout2
350
2BD
  3
Model
350
2B9
  0
DICTIONARY
  5
2D2
102
{ACAD_REACTORS
330
2A4
102
}
330
2A4
100
AcDbDictionary
281
     1
  3
ByBlock
350
2D4
  3
ByLayer
350
2D3
  3
Global
350
2D5
  0
DICTIONARY
  5
301
102
{ACAD_REACTORS
330
2A4
102
}
330
2A4
100
AcDbDictionary
281
     1
  0
DICTIONARY
  5
2AE
102
{ACAD_REACTORS
330
2A4
102
}
330
2A4
100
AcDbDictionary
281
     1
  3
Standard
350
2AF
  0
DICTIONARY
  5
2B0
102
{ACAD_REACTORS
330
2A4
102
}
330
2A4
100
AcDbDictionary
281
     1
  0
ACDBDICTIONARYWDFLT
  5
2A6
102
{ACAD_REACTORS
330
2A4
102
}
330
2A4
100
AcDbDictionary
281
     1
  3
Normal
350
2A7
100
AcDbDictionaryWithDefault
340
2A7
  0
DICTIONARY
  5
300
102
{ACAD_REACTORS
330
2A4
102
}
330
2A4
100
AcDbDictionary
281
     1
  0
DICTIONARY
  5
2C1
102
{ACAD_REACTORS
330
2A4
102
}
330
2A4
100
AcDbDictionary
281
     1
  3
2dWireframe
350
2C6
  3
3D Hidden
350
2C8
  3
3dWireframe
350
2C7
  3
Basic
350
2C9
  3
Brighten
350
2CD
  3
ColorChange
350
2D1
  3
Conceptual
350
2CB
  3
Dim
350
2CC
  3
Facepattern
350
2D0
  3
Flat
350
2C2
  3
FlatWithEdges
350
2C3
  3
Gouraud
350
2C4
  3
GouraudWithEdges
350
2C5
  3
Linepattern
350
2CF
  3
Realistic
350
2CA
  3
Thicken
350
2CE
  0
DICTIONARY
  5
2D7
102
{ACAD_REACTORS
330
2A4
102
}
330
2A4
100
AcDbDictionary
281
     1
  3
Grid/DisplayGrid
350
2E7
  3
Grid/GridSpacingX
350
2E0
  3
Grid/GridSpacingY
350
2E1
  3
Grid/MetaGridSpacingX
350
2DB
  3
Grid/MetaGridSpacingY
350
2DE
  3
MultiPageSettings/Columns
350
2DF
  3
MultiPageSettings/GlueMarginsBottom
350
2E4
  3
MultiPageSettings/GlueMarginsLeft
350
2E2
  3
MultiPageSettings/GlueMarginsRight
350
2D8
  3
MultiPageSettings/GlueMarginsTop
350
2EB
  3
MultiPageSettings/PrintCropMarks
350
2DA
  3
MultiPageSettings/Rows
350
2E3
  3
PageSettings/OffsetX
350
2E9
  3
PageSettings/OffsetY
350
2EA
  3
PageSettings/PageOrientation
350
2D9
  3
PageSettings/PaperHeight
350
2DC
  3
PageSettings/PaperWidth
350
2E5
  3
PageSettings/Scale
350
2DD
  3
PageSettings/ShowPaperBorders
350
2E8
  3
UnitSettings/PaperUnit
350
2E6
  0
LAYOUT
  5
2B5
102
{ACAD_REACTORS
330
2B1
102
}
330
2B1
100
AcDbPlotSettings
  1

  2
none_device
  4

  6

 40
0.0
 41
0.0
 42
0.0
 43
0.0
 44
0.0
 45
0.0
 46
0.0
 47
0.0
 48
0.0
 49
0.0
140
0.0
141
0.0
142
1.0
143
1.0
 70
   688
 72
     0
 73
     0
 74
     5
  7

 75
    16
 76
     0
 77
     2
 78
   300
147
1.0
148
0.0
149
0.0
100
AcDbLayout
  1
Layout1
 70
     1
 71
     1
 10
0.0
 20
0.0
 11
12.0
 21
9.0
 12
0.0
 22
0.0
 32
0.0
 14
1.000000000000000E+20
 24
1.000000000000000E+20
 34
1.000000000000000E+20
 15
-1.000000000000000E+20
 25
-1.000000000000000E+20
 35
-1.000000000000000E+20
146
0.0
 13
0.0
 23
0.0
 33
0.0
 16
1.0
 26
0.0
 36
0.0
 17
0.0
 27
1.0
 37
0.0
 76
     0
330
2B2
  0
LAYOUT
  5
2BD
102
{ACAD_REACTORS
330
2B1
102
}
330
2B1
100
AcDbPlotSettings
  1

  2
none_device
  4

  6

 40
0.0
 41
0.0
 42
0.0
 43
0.0
 44
0.0
 45
0.0
 46
0.0
 47
0.0
 48
0.0
 49
0.0
140
0.0
141
0.0
142
1.0
143
1.0
 70
   688
 72
     0
 73
     0
 74
     5
  7

 75
    16
 76
     0
 77
     2
 78
   300
147
1.0
148
0.0
149
0.0
100
AcDbLayout
  1
Layout2
 70
     1
 71
     2
 10
0.0
 20
0.0
 11
0.0
 21
0.0
 12
0.0
 22
0.0
 32
0.0
 14
0.0
 24
0.0
 34
0.0
 15
0.0
 25
0.0
 35
0.0
146
0.0
 13
0.0
 23
0.0
 33
0.0
 16
1.0
 26
0.0
 36
0.0
 17
0.0
 27
1.0
 37
0.0
 76
     0
330
2BA
  0
LAYOUT
  5
2B9
102
{ACAD_REACTORS
330
2B1
102
}
330
2B1
100
AcDbPlotSettings
  1

  2
none_device
  4

  6

 40
0.0
 41
0.0
 42
0.0
 43
0.0
 44
0.0
 45
0.0
 46
0.0
 47
0.0
 48
0.0
 49
0.0
140
0.0
141
0.0
142
1.0
143
1.0
 70
  1712
 72
     0
 73
     0
 74
     0
  7

 75
     0
 76
     0
 77
     2
 78
   300
147
1.0
148
0.0
149
0.0
100
AcDbLayout
  1
Model
 70
     1
 71
     0
 10
0.0
 20
0.0
 11
12.0
 21
9.0
 12
0.0
 22
0.0
 32
0.0
 14
1.000000000000000E+20
 24
1.000000000000000E+20
 34
1.000000000000000E+20
 15
-1.000000000000000E+20
 25
-1.000000000000000E+20
 35
-1.000000000000000E+20
146
0.0
 13
0.0
 23
0.0
 33
0.0
 16
1.0
 26
0.0
 36
0.0
 17
0.0
 27
1.0
 37
0.0
 76
     0
330
2B6
331
2C0
  0
MATERIAL
  5
2D4
102
{ACAD_REACTORS
330
2D2
102
}
330
2D2
100
AcDbMaterial
  1
ByBlock
 72
     1
 94
      127
  0
MATERIAL
  5
2D3
102
{ACAD_REACTORS
330
2D2
102
}
330
2D2
100
AcDbMaterial
  1
ByLayer
 72
     1
 94
      127
  0
MATERIAL
  5
2D5
102
{ACAD_REACTORS
330
2D2
102
}
330
2D2
100
AcDbMaterial
  1
Global
 72
     1
 94
      127
  0
MLINESTYLE
  5
2AF
102
{ACAD_REACTORS
330
2AE
102
}
330
2AE
100
AcDbMlineStyle
  2
Standard
 70
     0
  3

 62
   256
 51
90.0
 52
90.0
 71
     2
 49
0.5
 62
   256
  6
BYLAYER
 49
-0.5
 62
   256
  6
BYLAYER
  0
ACDBPLACEHOLDER
  5
2A7
102
{ACAD_REACTORS
330
2A6
102
}
330
2A6
  0
VISUALSTYLE
  5
2C6
102
{ACAD_REACTORS
330
2C1
102
}
330
2C1
100
AcDbVisualStyle
  2
2dWireframe
 70
     4
177
     2
291
     0
 71
     0
176
     1
 72
     2
176
     1
 73
     0
176
     1
 90
        0
176
     1
 40
-0.6
176
     1
 41
-30.0
176
     1
 62
     5
 63
     7
421
 16777215
176
     1
 74
     1
176
     1
 91
        4
176
     1
 64
     7
176
     1
 65
   257
176
     1
 75
     1
176
     1
175
     1
176
     1
 42
1.0
176
     1
 92
        0
176
     1
 66
   257
176
     1
 43
1.0
176
     1
 76
     1
176
     1
 77
     6
176
     1
 78
     2
176
     1
 67
     7
176
     1
 79
     5
176
     1
170
     0
176
     1
171
     0
176
     1
290
     0
176
     1
 93
        1
176
     1
 44
0.0
176
     1
173
     0
176
     1
  0
VISUALSTYLE
  5
2C8
102
{ACAD_REACTORS
330
2C1
102
}
330
2C1
100
AcDbVisualStyle
  2
3D Hidden
 70
     6
177
     2
291
     0
 71
     1
176
     1
 72
     2
176
     1
 73
     2
176
     1
 90
        0
176
     1
 40
-0.6
176
     1
 41
-30.0
176
     1
 62
     5
 63
     7
421
 16777215
176
     1
 74
     2
176
     1
 91
        2
176
     1
 64
     7
176
     1
 65
   257
176
     1
 75
     2
176
     1
175
     1
176
     1
 42
40.0
176
     1
 92
        0
176
     1
 66
   257
176
     1
 43
1.0
176
     1
 76
     1
176
     1
 77
     6
176
     1
 78
     2
176
     1
 67
     7
176
     1
 79
     3
176
     1
170
     0
176
     1
171
     0
176
     1
290
     0
176
     1
 93
        1
176
     1
 44
0.0
176
     1
173
     0
176
     1
  0
VISUALSTYLE
  5
2C7
102
{ACAD_REACTORS
330
2C1
102
}
330
2C1
100
AcDbVisualStyle
  2
3dWireframe
 70
     5
177
     2
291
     0
 71
     0
176
     1
 72
     2
176
     1
 73
     0
176
     1
 90
        0
176
     1
 40
-0.6
176
     1
 41
-30.0
176
     1
 62
     5
 63
     7
421
 16777215
176
     1
 74
     1
176
     1
 91
        4
176
     1
 64
     7
176
     1
 65
   257
176
     1
 75
     1
176
     1
175
     1
176
     1
 42
1.0
176
     1
 92
        0
176
     1
 66
   257
176
     1
 43
1.0
176
     1
 76
     1
176
     1
 77
     6
176
     1
 78
     2
176
     1
 67
     7
176
     1
 79
     5
176
     1
170
     0
176
     1
171
     0
176
     1
290
     0
176
     1
 93
        1
176
     1
 44
0.0
176
     1
173
     0
176
     1
  0
VISUALSTYLE
  5
2C9
102
{ACAD_REACTORS
330
2C1
102
}
330
2C1
100
AcDbVisualStyle
  2
Basic
 70
     7
177
     2
291
     1
 71
     1
176
     1
 72
     0
176
     1
 73
     1
176
     1
 90
        0
176
     1
 40
-0.6
176
     1
 41
-30.0
176
     1
 62
     5
 63
     7
421
 16777215
176
     1
 74
     0
176
     1
 91
        4
176
     1
 64
     7
176
     1
 65
   257
176
     1
 75
     1
176
     1
175
     1
176
     1
 42
1.0
176
     1
 92
        8
176
     1
 66
     7
176
     1
 43
1.0
176
     1
 76
     1
176
     1
 77
     6
176
     1
 78
     2
176
     1
 67
     7
176
     1
 79
     5
176
     1
170
     0
176
     1
171
     0
176
     1
290
     0
176
     1
 93
        1
176
     1
 44
0.0
176
     1
173
     0
176
     1
  0
VISUALSTYLE
  5
2CD
102
{ACAD_REACTORS
330
2C1
102
}
330
2C1
100
AcDbVisualStyle
  2
Brighten
 70
    12
177
     2
291
     1
 71
     2
176
     1
 72
     2
176
     1
 73
     0
176
     1
 90
        0
176
     1
 40
-0.6
176
     1
 41
-30.0
176
     1
 62
     5
 63
     7
421
 16777215
176
     1
 74
     1
176
     1
 91
        4
176
     1
 64
     7
176
     1
 65
   257
176
     1
 75
     1
176
     1
175
     1
176
     1
 42
1.0
176
     1
 92
        8
176
     1
 66
     7
176
     1
 43
1.0
176
     1
 76
     1
176
     1
 77
     6
176
     1
 78
     2
176
     1
 67
     7
176
     1
 79
     5
176
     1
170
     0
176
     1
171
     0
176
     1
290
     0
176
     1
 93
        1
176
     1
 44
50.0
176
     1
173
     0
176
     1
  0
VISUALSTYLE
  5
2D1
102
{ACAD_REACTORS
330
2C1
102
}
330
2C1
100
AcDbVisualStyle
  2
ColorChange
 70
    16
177
     2
291
     1
 71
     2
176
     1
 72
     2
176
     1
 73
     3
176
     1
 90
        0
176
     1
 40
-0.6
176
     1
 41
-30.0
176
     1
 62
     5
 63
     8
421
  8421504
176
     1
 74
     1
176
     1
 91
        4
176
     1
 64
     7
176
     1
 65
   257
176
     1
 75
     1
176
     1
175
     1
176
     1
 42
1.0
176
     1
 92
        8
176
     1
 66
     8
424
  8421504
176
     1
 43
1.0
176
     1
 76
     1
176
     1
 77
     6
176
     1
 78
     2
176
     1
 67
     7
176
     1
 79
     5
176
     1
170
     0
176
     1
171
     0
176
     1
290
     0
176
     1
 93
        1
176
     1
 44
0.0
176
     1
173
     0
176
     1
  0
VISUALSTYLE
  5
2CB
102
{ACAD_REACTORS
330
2C1
102
}
330
2C1
100
AcDbVisualStyle
  2
Conceptual
 70
     9
177
     2
291
     0
 71
     3
176
     1
 72
     2
176
     1
 73
     0
176
     1
 90
        0
176
     1
 40
-0.6
176
     1
 41
-30.0
176
     1
 62
     5
 63
     7
421
 16777215
176
     1
 74
     2
176
     1
 91
        2
176
     1
 64
     7
176
     1
 65
   257
176
     1
 75
     1
176
     1
175
     1
176
     1
 42
40.0
176
     1
 92
        8
176
     1
 66
     7
176
     1
 43
1.0
176
     1
 76
     1
176
     1
 77
     6
176
     1
 78
     2
176
     1
 67
     7
176
     1
 79
     3
176
     1
170
     0
176
     1
171
     0
176
     1
290
     0
176
     1
 93
        1
176
     1
 44
0.0
176
     1
173
     0
176
     1
  0
VISUALSTYLE
  5
2CC
102
{ACAD_REACTORS
330
2C1
102
}
330
2C1
100
AcDbVisualStyle
  2
Dim
 70
    11
177
     2
291
     1
 71
     2
176
     1
 72
     2
176
     1
 73
     0
176
     1
 90
        0
176
     1
 40
-0.6
176
     1
 41
-30.0
176
     1
 62
     5
 63
     7
421
 16777215
176
     1
 74
     1
176
     1
 91
        4
176
     1
 64
     7
176
     1
 65
   257
176
     1
 75
     1
176
     1
175
     1
176
     1
 42
1.0
176
     1
 92
        8
176
     1
 66
     7
176
     1
 43
1.0
176
     1
 76
     1
176
     1
 77
     6
176
     1
 78
     2
176
     1
 67
     7
176
     1
 79
     5
176
     1
170
     0
176
     1
171
     0
176
     1
290
     0
176
     1
 93
        1
176
     1
 44
-50.0
176
     1
173
     0
176
     1
  0
VISUALSTYLE
  5
2D0
102
{ACAD_REACTORS
330
2C1
102
}
330
2C1
100
AcDbVisualStyle
  2
Facepattern
 70
    15
177
     2
291
     1
 71
     2
176
     1
 72
     2
176
     1
 73
     0
176
     1
 90
        0
176
     1
 40
-0.6
176
     1
 41
-30.0
176
     1
 62
     5
 63
     7
421
 16777215
176
     1
 74
     1
176
     1
 91
        4
176
     1
 64
     7
176
     1
 65
   257
176
     1
 75
     1
176
     1
175
     1
176
     1
 42
1.0
176
     1
 92
        8
176
     1
 66
     7
176
     1
 43
1.0
176
     1
 76
     1
176
     1
 77
     6
176
     1
 78
     2
176
     1
 67
     7
176
     1
 79
     5
176
     1
170
     0
176
     1
171
     0
176
     1
290
     0
176
     1
 93
        1
176
     1
 44
0.0
176
     1
173
     0
176
     1
  0
VISUALSTYLE
  5
2C2
102
{ACAD_REACTORS
330
2C1
102
}
330
2C1
100
AcDbVisualStyle
  2
Flat
 70
     0
177
     2
291
     1
 71
     2
176
     1
 72
     1
176
     1
 73
     1
176
     1
 90
        2
176
     1
 40
-0.6
176
     1
 41
30.0
176
     1
 62
     5
 63
     7
421
 16777215
176
     1
 74
     0
176
     1
 91
        4
176
     1
 64
     7
176
     1
 65
   257
176
     1
 75
     1
176
     1
175
     1
176
     1
 42
1.0
176
     1
 92
        8
176
     1
 66
     7
176
     1
 43
1.0
176
     1
 76
     1
176
     1
 77
     6
176
     1
 78
     2
176
     1
 67
     7
176
     1
 79
     5
176
     1
170
     0
176
     1
171
     0
176
     1
290
     0
176
     1
 93
       13
176
     1
 44
0.0
176
     1
173
     0
176
     1
  0
VISUALSTYLE
  5
2C3
102
{ACAD_REACTORS
330
2C1
102
}
330
2C1
100
AcDbVisualStyle
  2
FlatWithEdges
 70
     1
177
     2
291
     1
 71
     2
176
     1
 72
     1
176
     1
 73
     1
176
     1
 90
        2
176
     1
 40
-0.6
176
     1
 41
30.0
176
     1
 62
     5
 63
     7
421
 16777215
176
     1
 74
     1
176
     1
 91
        4
176
     1
 64
     7
176
     1
 65
   257
176
     1
 75
     1
176
     1
175
     1
176
     1
 42
1.0
176
     1
 92
        0
176
     1
 66
   257
176
     1
 43
1.0
176
     1
 76
     1
176
     1
 77
     6
176
     1
 78
     2
176
     1
 67
     7
176
     1
 79
     5
176
     1
170
     0
176
     1
171
     0
176
     1
290
     0
176
     1
 93
       13
176
     1
 44
0.0
176
     1
173
     0
176
     1
  0
VISUALSTYLE
  5
2C4
102
{ACAD_REACTORS
330
2C1
102
}
330
2C1
100
AcDbVisualStyle
  2
Gouraud
 70
     2
177
     2
291
     1
 71
     2
176
     1
 72
     2
176
     1
 73
     1
176
     1
 90
        2
176
     1
 40
-0.6
176
     1
 41
30.0
176
     1
 62
     5
 63
     7
421
 16777215
176
     1
 74
     0
176
     1
 91
        4
176
     1
 64
     7
176
     1
 65
   257
176
     1
 75
     1
176
     1
175
     1
176
     1
 42
1.0
176
     1
 92
        0
176
     1
 66
     7
176
     1
 43
1.0
176
     1
 76
     1
176
     1
 77
     6
176
     1
 78
     2
176
     1
 67
     7
176
     1
 79
     5
176
     1
170
     0
176
     1
171
     0
176
     1
290
     0
176
     1
 93
       13
176
     1
 44
0.0
176
     1
173
     0
176
     1
  0
VISUALSTYLE
  5
2C5
102
{ACAD_REACTORS
330
2C1
102
}
330
2C1
100
AcDbVisualStyle
  2
GouraudWithEdges
 70
     3
177
     2
291
     1
 71
     2
176
     1
 72
     2
176
     1
 73
     1
176
     1
 90
        2
176
     1
 40
-0.6
176
     1
 41
30.0
176
     1
 62
     5
 63
     7
421
 16777215
176
     1
 74
     1
176
     1
 91
        4
176
     1
 64
     7
176
     1
 65
   257
176
     1
 75
     1
176
     1
175
     1
176
     1
 42
1.0
176
     1
 92
        0
176
     1
 66
   257
176
     1
 43
1.0
176
     1
 76
     1
176
     1
 77
     6
176
     1
 78
     2
176
     1
 67
     7
176
     1
 79
     5
176
     1
170
     0
176
     1
171
     0
176
     1
290
     0
176
     1
 93
       13
176
     1
 44
0.0
176
     1
173
     0
176
     1
  0
VISUALSTYLE
  5
2CF
102
{ACAD_REACTORS
330
2C1
102
}
330
2C1
100
AcDbVisualStyle
  2
Linepattern
 70
    14
177
     2
291
     1
 71
     2
176
     1
 72
     2
176
     1
 73
     0
176
     1
 90
        0
176
     1
 40
-0.6
176
     1
 41
-30.0
176
     1
 62
     5
 63
     7
421
 16777215
176
     1
 74
     1
176
     1
 91
        4
176
     1
 64
     7
176
     1
 65
   257
176
     1
 75
     7
176
     1
175
     7
176
     1
 42
1.0
176
     1
 92
        8
176
     1
 66
     7
176
     1
 43
1.0
176
     1
 76
     1
176
     1
 77
     6
176
     1
 78
     2
176
     1
 67
     7
176
     1
 79
     5
176
     1
170
     0
176
     1
171
     0
176
     1
290
     0
176
     1
 93
        1
176
     1
 44
0.0
176
     1
173
     0
176
     1
  0
VISUALSTYLE
  5
2CA
102
{ACAD_REACTORS
330
2C1
102
}
330
2C1
100
AcDbVisualStyle
  2
Realistic
 70
     8
177
     2
291
     0
 71
     2
176
     1
 72
     2
176
     1
 73
     0
176
     1
 90
        0
176
     1
 40
-0.6
176
     1
 41
-30.0
176
     1
 62
     5
 63
     7
421
 16777215
176
     1
 74
     1
176
     1
 91
        0
176
     1
 64
     7
176
     1
 65
   257
176
     1
 75
     1
176
     1
175
     1
176
     1
 42
1.0
176
     1
 92
        8
176
     1
 66
     8
424
  7895160
176
     1
 43
1.0
176
     1
 76
     1
176
     1
 77
     6
176
     1
 78
     2
176
     1
 67
     7
176
     1
 79
     5
176
     1
170
     0
176
     1
171
     0
176
     1
290
     0
176
     1
 93
       13
176
     1
 44
0.0
176
     1
173
     0
176
     1
  0
VISUALSTYLE
  5
2CE
102
{ACAD_REACTORS
330
2C1
102
}
330
2C1
100
AcDbVisualStyle
  2
Thicken
 70
    13
177
     2
291
     1
 71
     2
176
     1
 72
     2
176
     1
 73
     0
176
     1
 90
        0
176
     1
 40
-0.6
176
     1
 41
-30.0
176
     1
 62
     5
 63
     7
421
 16777215
176
     1
 74
     1
176
     1
 91
        4
176
     1
 64
     7
176
     1
 65
   257
176
     1
 75
     1
176
     1
175
     1
176
     1
 42
1.0
176
     1
 92
       12
176
     1
 66
     7
176
     1
 43
1.0
176
     1
 76
     1
176
     1
 77
     6
176
     1
 78
     2
176
     1
 67
     7
176
     1
 79
     5
176
     1
170
     0
176
     1
171
     0
176
     1
290
     0
176
     1
 93
        1
176
     1
 44
0.0
176
     1
173
     0
176
     1
  0
XRECORD
  5
2E7
102
{ACAD_REACTORS
330
2D7
102
}
330
2D7
100
AcDbXrecord
280
     1
290
     1
  0
XRECORD
  5
2E0
102
{ACAD_REACTORS
330
2D7
102
}
330
2D7
100
AcDbXrecord
280
     1
1000
auto
  0
XRECORD
  5
2E1
102
{ACAD_REACTORS
330
2D7
102
}
330
2D7
100
AcDbXrecord
280
     1
1000
auto
  0
XRECORD
  5
2DB
102
{ACAD_REACTORS
330
2D7
102
}
330
2D7
100
AcDbXrecord
280
     1
1000
auto
  0
XRECORD
  5
2DE
102
{ACAD_REACTORS
330
2D7
102
}
330
2D7
100
AcDbXrecord
280
     1
1000
auto
  0
XRECORD
  5
2DF
102
{ACAD_REACTORS
330
2D7
102
}
330
2D7
100
AcDbXrecord
280
     1
 90
        1
  0
XRECORD
  5
2E4
102
{ACAD_REACTORS
330
2D7
102
}
330
2D7
100
AcDbXrecord
280
     1
 40
10.0
  0
XRECORD
  5
2E2
102
{ACAD_REACTORS
330
2D7
102
}
330
2D7
100
AcDbXrecord
280
     1
 40
10.0
  0
XRECORD
  5
2D8
102
{ACAD_REACTORS
330
2D7
102
}
330
2D7
100
AcDbXrecord
280
     1
 40
10.0
  0
XRECORD
  5
2EB
102
{ACAD_REACTORS
330
2D7
102
}
330
2D7
100
AcDbXrecord
280
     1
 40
10.0
  0
XRECORD
  5
2DA
102
{ACAD_REACTORS
330
2D7
102
}
330
2D7
100
AcDbXrecord
280
     1
290
     0
  0
XRECORD
  5
2E3
102
{ACAD_REACTORS
330
2D7
102
}
330
2D7
100
AcDbXrecord
280
     1
 90
        1
  0
XRECORD
  5
2E9
102
{ACAD_REACTORS
330
2D7
102
}
330
2D7
100
AcDbXrecord
280
     1
 40
0.0
  0
XRECORD
  5
2EA
102
{ACAD_REACTORS
330
2D7
102
}
330
2D7
100
AcDbXrecord
280
     1
 40
0.0
  0
XRECORD
  5
2D9
102
{ACAD_REACTORS
330
2D7
102
}
330
2D7
100
AcDbXrecord
280
     1
1000
Portrait
  0
XRECORD
  5
2DC
102
{ACAD_REACTORS
330
2D7
102
}
330
2D7
100
AcDbXrecord
280
     1
 40
297.0
  0
XRECORD
  5
2E5
102
{ACAD_REACTORS
330
2D7
102
}
330
2D7
100
AcDbXrecord
280
     1
 40
210.0
  0
XRECORD
  5
2DD
102
{ACAD_REACTORS
330
2D7
102
}
330
2D7
100
AcDbXrecord
280
     1
1000
1:1
  0
XRECORD
  5
2E8
102
{ACAD_REACTORS
330
2D7
102
}
330
2D7
100
AcDbXrecord
280
     1
290
     1
  0
XRECORD
  5
2E6
102
{ACAD_REACTORS
330
2D7
102
}
330
2D7
100
AcDbXrecord
280
     1
 40
1.0
  0
ENDSEC
  0
EOF
